<svg xmlns="http://www.w3.org/2000/svg" width="38" height="38" viewBox="0 0 38 38"><defs><style>.a,.c{fill:#fff;}.a{opacity:0.852;}.b{fill:none;}.c{font-size:1px;font-family:Helvetica;opacity:0;}.d,.e{stroke:none;}.e{fill:#23a1a2;}</style></defs><rect class="a" width="38" height="38" rx="19"/><g transform="translate(-84)"><g class="b" transform="translate(93 10)"><path class="d" d="M10.5,19C4.854,15.206,1.893,11.755.679,8.867-2.574,1.126,6.718-2.576,10.5,1.994c3.782-4.57,13.074-.868,9.821,6.873C19.107,11.755,16.146,15.206,10.5,19Z"/><path class="e" d="M 10.50000381469727 17.1808910369873 C 13.71556949615479 14.92708492279053 17.49771881103516 11.71201610565186 18.93827247619629 8.285477638244629 C 19.71922302246094 6.427258014678955 19.68539237976074 4.772908210754395 18.84043312072754 3.501258134841919 C 18.02021217346191 2.266838073730469 16.50638198852539 1.499998092651367 14.88971328735352 1.499998092651367 C 13.57808303833008 1.499998092651367 12.42949295043945 2.014968156814575 11.6555233001709 2.950027942657471 L 10.50000286102295 4.346057891845703 L 9.344482421875 2.950027942657471 C 8.570512771606445 2.014958143234253 7.42192268371582 1.499998092651367 6.110292911529541 1.499998092651367 C 4.493813037872314 1.499998092651367 2.980062961578369 2.266898155212402 2.159772872924805 3.501428127288818 C 1.314762830734253 4.773158073425293 1.280862808227539 6.427457809448242 2.061652898788452 8.285298347473145 C 3.502288818359375 11.71201038360596 7.284445285797119 14.92708492279053 10.50000381469727 17.1808910369873 M 10.50000286102295 18.99999809265137 C 4.854222774505615 15.20631790161133 1.893232822418213 11.75509834289551 0.6788828372955322 8.86663818359375 C -1.60114860534668 3.441425085067749 2.281462907791138 4.620361266916007e-07 6.110295295715332 4.620361266916007e-07 C 7.744459629058838 4.620361266916007e-07 9.368599891662598 0.626695454120636 10.50000286102295 1.993588089942932 C 11.63117504119873 0.62697434425354 13.25588321685791 4.620361266916007e-07 14.88970947265625 4.620361266916007e-07 C 18.7188663482666 4.620361266916007e-07 22.60135078430176 3.440952777862549 20.32111358642578 8.86663818359375 C 19.10677337646484 11.75509834289551 16.14578247070312 15.20631790161133 10.50000286102295 18.99999809265137 Z"/></g><text class="c" transform="translate(98 20)"><tspan x="0" y="0">add to wishlist</tspan></text></g></svg>