<svg xmlns="http://www.w3.org/2000/svg" width="207.561" height="58.962" viewBox="0 0 207.561 58.962"><defs><style>.a{fill:#92cfa0;}.b{fill:#f48271;}.c{fill:#bca3cd;}.d{fill:#f9cf59;}.e{fill:#fff;}</style></defs><g transform="translate(-140 -78)"><g transform="translate(140 78)"><path class="a" d="M53.063,148.626V132.5a.9.9,0,0,0-.96-.911,18.777,18.777,0,0,0-16.964,16.971.9.9,0,0,0,.9.968H52.16A.9.9,0,0,0,53.063,148.626Z" transform="translate(-35.124 -131.588)"/><path class="b" d="M85,148.626V132.5a.911.911,0,0,1,.968-.911,18.785,18.785,0,0,1,16.972,16.971.911.911,0,0,1-.911.968h-16.1a.9.9,0,0,1-.927-.9Z" transform="translate(-44.437 -131.588)"/><path class="c" d="M62.828,149.529H77.1a.927.927,0,0,0,.943-.9V132.493a.927.927,0,0,0-.943-.9H61.063a.927.927,0,0,0-.943.9v16.134a.927.927,0,0,0,.943.9h1.765Z" transform="translate(-39.791 -131.588)"/><path class="a" d="M85.07,198.558V182.44a.9.9,0,0,1,.968-.911A18.777,18.777,0,0,1,103.009,198.5a.9.9,0,0,1-.9.968H85.981A.911.911,0,0,1,85.07,198.558Z" transform="translate(-44.452 -140.916)"/><path class="c" d="M62.878,199.469H77.166a.927.927,0,0,0,.943-.9V182.433a.919.919,0,0,0-.943-.9H61.105a.911.911,0,0,0-.935.9v16.134a.919.919,0,0,0,.935.9Z" transform="translate(-39.798 -140.917)"/><path class="d" d="M85,157.463v16.126a.911.911,0,0,0,.968.911,18.785,18.785,0,0,0,16.972-16.971.911.911,0,0,0-.911-.968h-16.1a.9.9,0,0,0-.927.9Z" transform="translate(-44.437 -136.253)"/><path class="b" d="M53.062,182.433v16.126a.895.895,0,0,1-.96.9A18.76,18.76,0,0,1,35.139,182.5a.894.894,0,0,1,.9-.968H52.16A.9.9,0,0,1,53.062,182.433Z" transform="translate(-35.123 -140.918)"/><path class="e" d="M75.351,156.56H61.063a.927.927,0,0,0-.943.9V173.6a.927.927,0,0,0,.943.9H77.1a.927.927,0,0,0,.943-.9V157.463a.927.927,0,0,0-.943-.9Z" transform="translate(-39.791 -136.252)"/><path class="d" d="M50.351,157H36.063a.927.927,0,0,0-.943.9v16.134a.927.927,0,0,0,.943.854H52.1a.919.919,0,0,0,.935-.9v-16.1A.919.919,0,0,0,52.1,157Z" transform="translate(-35.12 -136.335)"/></g><path class="e" d="M138.169,184.352H143.2a11.019,11.019,0,0,1-4.231,6.465,12.887,12.887,0,0,1-7.9,2.32q-5.747,0-8.972-3.735t-3.233-10.387q0-6.465,3.132-10.057t8.972-3.728q6.056,0,9.382,3.628,3.233,3.743,3.233,10.394v1.106a1.811,1.811,0,0,1-.1.718H126.022a6.916,6.916,0,0,0,1.516,4.633,4.763,4.763,0,0,0,3.937,1.616,5.747,5.747,0,0,0,2.924-.718,1.393,1.393,0,0,0,.553-.352l.553-.56a2.206,2.206,0,0,1,.761-.8A2.974,2.974,0,0,1,138.169,184.352Zm-12.1-7.866h10.294a6.572,6.572,0,0,0-1.437-4.037,4.848,4.848,0,0,0-3.735-1.437,4.906,4.906,0,0,0-3.628,1.437A5.747,5.747,0,0,0,126.065,176.486Z" transform="translate(89.236 -56.186)"/><path class="e" d="M171.414,192.836H164.23L154.87,166h7.464l5.345,18.864,4.741-16.443A3.175,3.175,0,0,1,175.652,166H180.9Z" transform="translate(79.096 -56.402)"/><path class="e" d="M216.184,192.6h-3.527a3.283,3.283,0,0,1-3.434-3.426v-13.72a4.159,4.159,0,0,0-1.437-3.527,5.3,5.3,0,0,0-3.283-1.113,5.086,5.086,0,0,0-3.225,1.113,4.217,4.217,0,0,0-1.437,3.527V192.6H192.78V176.872q0-6.867,3.592-9.18a15.682,15.682,0,0,1,7.9-2.521,15.221,15.221,0,0,1,8.175,2.32q3.728,2.313,3.728,9.382Z" transform="translate(68.418 -56.168)"/><path class="e" d="M239.14,189.756a52.141,52.141,0,0,1-7.184-.1q-3.886-.3-3.886-4.942V155.06H231.7a3.19,3.19,0,0,1,2.313,1.006,3.3,3.3,0,0,1,1.013,2.421v4.54h4.138v1.437a3.254,3.254,0,0,1-1.013,2.471,3.376,3.376,0,0,1-2.421.955h-.718v14.927c0,1.149.668,1.717,2.019,1.717h2.119Z" transform="translate(58.479 -53.321)"/><path class="e" d="M247.459,190.173a9.956,9.956,0,0,1-3.024-4.892,22.519,22.519,0,0,1-.905-6.4,20.368,20.368,0,0,1,.754-5.452,11.263,11.263,0,0,1,2.371-4.54,10.509,10.509,0,0,1,6.76-3.592,15.616,15.616,0,0,1,7.464.654,10.28,10.28,0,0,1,5.646,5.244,16.775,16.775,0,0,1,1.717,7.772,19.319,19.319,0,0,1-.718,5.546,14.364,14.364,0,0,1-1.817,3.936,10.057,10.057,0,0,1-6.156,4.13,13.577,13.577,0,0,1-6.7.151A11.681,11.681,0,0,1,247.459,190.173Zm4.842-17.75q-2.112,2.313-1.911,6.91c.129,3.06.718,5.194,1.71,6.408a4.511,4.511,0,0,0,2.155,1.358,4.791,4.791,0,0,0,3.074.1,5.143,5.143,0,0,0,2.78-2.27c.8-1.207,1.243-3.161,1.307-5.847a10.3,10.3,0,0,0-1.157-5.452,5.287,5.287,0,0,0-2.672-2.32,4.964,4.964,0,0,0-3.032-.05,5.409,5.409,0,0,0-2.292,1.156Z" transform="translate(54.125 -56.151)"/><path class="e" d="M282.516,190.173a9.907,9.907,0,0,1-3.024-4.892,22.268,22.268,0,0,1-.912-6.4,20.112,20.112,0,0,1,.762-5.452,11.263,11.263,0,0,1,2.371-4.54,10.488,10.488,0,0,1,6.753-3.592,15.616,15.616,0,0,1,7.464.654,10.316,10.316,0,0,1,5.654,5.244,16.773,16.773,0,0,1,1.724,7.78,19.066,19.066,0,0,1-.718,5.546,14.367,14.367,0,0,1-1.81,3.936,10.057,10.057,0,0,1-6.156,4.13,13.6,13.6,0,0,1-6.709.151A11.659,11.659,0,0,1,282.516,190.173Zm4.842-17.75q-2.155,2.313-1.918,6.91c.137,3.06.718,5.194,1.717,6.408a4.469,4.469,0,0,0,2.155,1.358,4.791,4.791,0,0,0,3.075.1,5.13,5.13,0,0,0,2.773-2.27c.8-1.207,1.243-3.161,1.314-5.847a10.244,10.244,0,0,0-1.164-5.452,5.287,5.287,0,0,0-2.672-2.32,4.942,4.942,0,0,0-3.024-.05,5.317,5.317,0,0,0-2.256,1.156Z" transform="translate(44.251 -56.151)"/><path class="e" d="M138.169,184.352H143.2a11.019,11.019,0,0,1-4.231,6.465,12.887,12.887,0,0,1-7.9,2.32q-5.747,0-8.972-3.735t-3.233-10.387q0-6.465,3.132-10.057t8.972-3.728q6.056,0,9.382,3.628,3.233,3.743,3.233,10.394v1.106a1.811,1.811,0,0,1-.1.718H126.022a6.916,6.916,0,0,0,1.516,4.633,4.763,4.763,0,0,0,3.937,1.616,5.747,5.747,0,0,0,2.924-.718,1.393,1.393,0,0,0,.553-.352l.553-.56a2.206,2.206,0,0,1,.761-.8A2.974,2.974,0,0,1,138.169,184.352Zm-12.1-7.866h10.294a6.572,6.572,0,0,0-1.437-4.037,4.848,4.848,0,0,0-3.735-1.437,4.906,4.906,0,0,0-3.628,1.437A5.747,5.747,0,0,0,126.065,176.486Z" transform="translate(89.236 -56.186)"/><path class="e" d="M171.414,192.836H164.23L154.87,166h7.464l5.345,18.864,4.741-16.443A3.175,3.175,0,0,1,175.652,166H180.9Z" transform="translate(79.096 -56.402)"/><path class="e" d="M216.184,192.6h-3.527a3.283,3.283,0,0,1-3.434-3.426v-13.72a4.159,4.159,0,0,0-1.437-3.527,5.3,5.3,0,0,0-3.283-1.113,5.086,5.086,0,0,0-3.225,1.113,4.217,4.217,0,0,0-1.437,3.527V192.6H192.78V176.872q0-6.867,3.592-9.18a15.682,15.682,0,0,1,7.9-2.521,15.221,15.221,0,0,1,8.175,2.32q3.728,2.313,3.728,9.382Z" transform="translate(68.418 -56.168)"/><path class="e" d="M239.14,189.756a52.141,52.141,0,0,1-7.184-.1q-3.886-.3-3.886-4.942V155.06H231.7a3.19,3.19,0,0,1,2.313,1.006,3.3,3.3,0,0,1,1.013,2.421v4.54h4.138v1.437a3.254,3.254,0,0,1-1.013,2.471,3.376,3.376,0,0,1-2.421.955h-.718v14.927c0,1.149.668,1.717,2.019,1.717h2.119Z" transform="translate(58.479 -53.321)"/><path class="e" d="M247.459,190.173a9.956,9.956,0,0,1-3.024-4.892,22.519,22.519,0,0,1-.905-6.4,20.368,20.368,0,0,1,.754-5.452,11.263,11.263,0,0,1,2.371-4.54,10.509,10.509,0,0,1,6.76-3.592,15.616,15.616,0,0,1,7.464.654,10.28,10.28,0,0,1,5.646,5.244,16.775,16.775,0,0,1,1.717,7.772,19.319,19.319,0,0,1-.718,5.546,14.364,14.364,0,0,1-1.817,3.936,10.057,10.057,0,0,1-6.156,4.13,13.577,13.577,0,0,1-6.7.151A11.681,11.681,0,0,1,247.459,190.173Zm4.842-17.75q-2.112,2.313-1.911,6.91c.129,3.06.718,5.194,1.71,6.408a4.511,4.511,0,0,0,2.155,1.358,4.791,4.791,0,0,0,3.074.1,5.143,5.143,0,0,0,2.78-2.27c.8-1.207,1.243-3.161,1.307-5.847a10.3,10.3,0,0,0-1.157-5.452,5.287,5.287,0,0,0-2.672-2.32,4.964,4.964,0,0,0-3.032-.05,5.409,5.409,0,0,0-2.292,1.156Z" transform="translate(54.125 -56.151)"/><path class="e" d="M282.516,190.173a9.907,9.907,0,0,1-3.024-4.892,22.268,22.268,0,0,1-.912-6.4,20.112,20.112,0,0,1,.762-5.452,11.263,11.263,0,0,1,2.371-4.54,10.488,10.488,0,0,1,6.753-3.592,15.616,15.616,0,0,1,7.464.654,10.316,10.316,0,0,1,5.654,5.244,16.773,16.773,0,0,1,1.724,7.78,19.066,19.066,0,0,1-.718,5.546,14.367,14.367,0,0,1-1.81,3.936,10.057,10.057,0,0,1-6.156,4.13,13.6,13.6,0,0,1-6.709.151A11.659,11.659,0,0,1,282.516,190.173Zm4.842-17.75q-2.155,2.313-1.918,6.91c.137,3.06.718,5.194,1.717,6.408a4.469,4.469,0,0,0,2.155,1.358,4.791,4.791,0,0,0,3.075.1,5.13,5.13,0,0,0,2.773-2.27c.8-1.207,1.243-3.161,1.314-5.847a10.244,10.244,0,0,0-1.164-5.452,5.287,5.287,0,0,0-2.672-2.32,4.942,4.942,0,0,0-3.024-.05,5.317,5.317,0,0,0-2.256,1.156Z" transform="translate(44.251 -56.151)"/></g></svg>