<svg xmlns="http://www.w3.org/2000/svg" xmlns:xlink="http://www.w3.org/1999/xlink" width="571" height="393.6" viewBox="0 0 571 393.6"><defs><style>.a,.b,.c,.d{fill:#f48271;}.a{opacity:0.5;}.c{opacity:0.2;}.d{opacity:0.3;}.e,.g{opacity:0.1;}.f{fill:#3f3d56;}.h{opacity:0.6;}.i{fill:url(#a);}.j{fill:#a0616a;}.k{fill:#8e5362;}.l{fill:#2f2e41;}.m{fill:#fff;}.n{fill:#ffc1c7;}</style><linearGradient id="a" x1="0.5" y1="1" x2="0.5" gradientUnits="objectBoundingBox"><stop offset="0" stop-color="gray" stop-opacity="0.251"/><stop offset="0.54" stop-color="gray" stop-opacity="0.122"/><stop offset="1" stop-color="gray" stop-opacity="0.102"/></linearGradient></defs><g transform="translate(0 -29.996)"><path class="a" d="M276.962,70.521a1.669,1.669,0,0,0-2.713,1.94c.31.468.652.92.973,1.357,3.917,5.258,5.947,11.709,7.7,18.061a8.436,8.436,0,0,1,.352,4.732,29.76,29.76,0,0,0-.81-12.429,76.885,76.885,0,0,0-4.4-11.714A10.652,10.652,0,0,0,276.962,70.521Z" transform="translate(-159.88 -26.422)"/><path class="b" d="M229.387,92.3c-2.629-.079-2.976,3.928-.347,4.138.689.058,1.388.074,2.051.089,8.092.221,15.747,3.155,23.1,6.309,1.8.773,3.68,1.64,4.732,3.3A34.786,34.786,0,0,0,246.6,97.4a90.815,90.815,0,0,0-14.533-4.7A12.708,12.708,0,0,0,229.387,92.3Z" transform="translate(-137.728 -37.074)"/><path class="c" d="M231.746,111c-1.672.063-1.293,2.434.389,2.45.436,0,.878,0,1.293-.037,5.105-.205,10.337,1.2,15.405,2.755a7.869,7.869,0,0,1,3.465,1.74,27.772,27.772,0,0,0-9-4.622,69.736,69.736,0,0,0-9.8-2.156A8.871,8.871,0,0,0,231.746,111Z" transform="translate(-139.356 -45.94)"/><path class="a" d="M297.049,175.405c.473,1.6,2.681.647,2.277-.983-.105-.426-.237-.847-.358-1.246-1.467-4.9-1.4-10.311-1.157-15.605a7.932,7.932,0,0,1,.831-3.791,27.714,27.714,0,0,0-2.24,9.869,68.524,68.524,0,0,0,.342,10.027,8.837,8.837,0,0,0,.3,1.73Z" transform="translate(-170.504 -66.23)"/><path class="c" d="M237.786,66.9c-1-.174-1.078,1.288-.079,1.514.263.058.526.1.778.142a28.917,28.917,0,0,1,8.854,3.6,4.785,4.785,0,0,1,1.846,1.483,16.94,16.94,0,0,0-4.79-3.907,41.459,41.459,0,0,0-5.579-2.529A5.289,5.289,0,0,0,237.786,66.9Z" transform="translate(-142.356 -25.021)"/><path class="b" d="M207.97,136.161c-2.55,1.314-.394,4.916,2.224,3.723.684-.315,1.351-.668,1.993-1,7.787-4.038,16.825-5.526,25.763-6.672,2.182-.279,4.511-.526,6.53.337a44.187,44.187,0,0,0-17.041-1.02A112.25,112.25,0,0,0,210.8,135.1,15.086,15.086,0,0,0,207.97,136.161Z" transform="translate(-128.051 -55.499)"/><path class="a" d="M222.323,155.379c-1.83,1.709,1.052,3.728,2.95,2.1.526-.426.983-.878,1.441-1.309,5.584-5.258,12.961-8.97,20.306-12.408,1.8-.847,9.227-1.7,11.2-1.656-5.174.463-15.742,2.1-20.442,4.206a113.2,113.2,0,0,0-13.334,7.487A14,14,0,0,0,222.323,155.379Z" transform="translate(-135.122 -60.694)"/><path class="b" d="M247.661,181.637c-.526,2.445,2.96,2.482,3.612.037.168-.636.3-1.283.436-1.9,1.614-7.482,5.563-14.748,9.653-21.752,1-1.719,6.62-6.646,8.276-7.734-4,3.323-11.772,10.663-14.422,15.09a113.573,113.573,0,0,0-6.719,13.739,14.432,14.432,0,0,0-.836,2.519Z" transform="translate(-147.389 -64.575)"/><path class="b" d="M294.222,45.47c-1.251-2.545-4.816-.452-3.681,2.156.294.684.626,1.351.941,1.987,3.843,7.776,5.163,16.762,6.152,25.6.242,2.166.452,4.48-.431,6.472a44.332,44.332,0,0,0,1.267-16.878,111.261,111.261,0,0,0-3.255-16.541,14.888,14.888,0,0,0-.994-2.8Z" transform="translate(-167.645 -14.32)"/><path class="b" d="M257.217,52.663a.473.473,0,0,0,.216.068c.142,0,.237-.142.294-.268.31-.678.131-1.577.615-2.1a7.406,7.406,0,0,1,1.162,1.914l1.83-.526a2.7,2.7,0,0,1-.347,2.1,2.735,2.735,0,0,1,.862.589.941.941,0,0,1,.226.967,4.643,4.643,0,0,1-1.293.126,8.6,8.6,0,0,1-.137,2.408.436.436,0,0,1-.158.3c-.131.084-.31,0-.447-.074a4.207,4.207,0,0,1-1.5-1.577l-.684,1.625a.736.736,0,0,1-.3.41.489.489,0,0,1-.573-.2,1.372,1.372,0,0,1-.2-.615l-.258-1.546a.368.368,0,0,0-.084-.221.394.394,0,0,0-.268-.079h-1.94c-.11-.347.231-.662.563-.81s.72-.252.889-.573c.337-.657-.526-1.577-.163-2.129C255.95,51.748,256.655,52.384,257.217,52.663Z" transform="translate(-150.52 -17.186)"/><path class="a" d="M321.153,70.521a1.669,1.669,0,0,1,2.713,1.94c-.31.468-.652.92-.973,1.357-3.917,5.258-5.952,11.709-7.7,18.061a8.392,8.392,0,0,0-.358,4.732,29.762,29.762,0,0,1,.815-12.429,77.186,77.186,0,0,1,4.4-11.741A10.654,10.654,0,0,1,321.153,70.521Z" transform="translate(-179.113 -26.422)"/><path class="b" d="M348.853,92.3c2.629-.079,2.981,3.928.347,4.138-.689.058-1.383.074-2.045.089-8.1.221-15.747,3.155-23.1,6.309-1.8.773-3.681,1.64-4.732,3.3A34.694,34.694,0,0,1,331.644,97.4a91.42,91.42,0,0,1,14.512-4.69A12.709,12.709,0,0,1,348.853,92.3Z" transform="translate(-181.397 -37.074)"/><path class="a" d="M355.573,111c1.667.063,1.293,2.434-.389,2.45-.436,0-.878,0-1.3-.037-5.105-.205-10.332,1.2-15.4,2.755a7.869,7.869,0,0,0-3.465,1.74,27.772,27.772,0,0,1,9-4.622,69.574,69.574,0,0,1,9.8-2.156A8.87,8.87,0,0,1,355.573,111Z" transform="translate(-188.842 -45.94)"/><path class="c" d="M358.044,66.9c1.01-.174,1.083,1.288.084,1.514-.263.058-.526.1-.783.142a28.889,28.889,0,0,0-8.849,3.6,4.785,4.785,0,0,0-1.846,1.483,16.872,16.872,0,0,1,4.79-3.907,41.4,41.4,0,0,1,5.573-2.529A5.512,5.512,0,0,1,358.044,66.9Z" transform="translate(-194.357 -25.021)"/><path class="c" d="M316.934,188.834c-.226,1-1.609.526-1.425-.526.047-.268.105-.526.163-.778a28.938,28.938,0,0,0,.095-9.553,4.838,4.838,0,0,0-.657-2.277,16.931,16.931,0,0,1,1.756,5.941,41.881,41.881,0,0,1,.184,6.125A5.526,5.526,0,0,1,316.934,188.834Z" transform="translate(-179.4 -76.624)"/><path class="a" d="M353.3,173.94c.783,1.33-1.141,1.236-1.987-.095-.226-.347-.426-.694-.626-1.052-2.387-4.064-6.025-8.087-9.685-11.972a13.429,13.429,0,0,0-3.007-2.592,47.383,47.383,0,0,1,7.887,6.73c2.35,2.461,4.427,5.021,6.462,7.582a12.343,12.343,0,0,1,.957,1.4Z" transform="translate(-190.25 -68.34)"/><path class="c" d="M234.155,173.94c-.783,1.33,1.146,1.236,1.993-.095.221-.347.426-.694.62-1.052,2.387-4.064,6.025-8.087,9.69-11.972a13.4,13.4,0,0,1,3-2.592,47.815,47.815,0,0,0-7.887,6.73c-2.35,2.461-4.427,5.021-6.457,7.582a12.39,12.39,0,0,0-.962,1.4Z" transform="translate(-140.923 -68.34)"/><path class="c" d="M282.732,188.834c.226,1,1.6.526,1.425-.526-.047-.268-.11-.526-.168-.778a28.939,28.939,0,0,1-.089-9.553,4.89,4.89,0,0,1,.652-2.277,16.92,16.92,0,0,0-1.756,5.941,41.894,41.894,0,0,0-.189,6.125A5.523,5.523,0,0,0,282.732,188.834Z" transform="translate(-163.969 -76.624)"/><path class="c" d="M342.719,85.9c1-.179,1.078,1.288.079,1.509-.263.058-.526.105-.778.147a29.034,29.034,0,0,0-8.854,3.6,4.878,4.878,0,0,0-1.845,1.483,16.924,16.924,0,0,1,4.79-3.9,42.158,42.158,0,0,1,5.579-2.534A5.259,5.259,0,0,1,342.719,85.9Z" transform="translate(-187.087 -34.031)"/><path class="c" d="M327.915,48.5c.868-.526,1.483.794.641,1.372-.226.152-.452.294-.673.426a28.924,28.924,0,0,0-6.861,6.646,4.89,4.89,0,0,0-1.162,2.066,16.993,16.993,0,0,1,2.986-5.41,41.63,41.63,0,0,1,4.206-4.432A5.729,5.729,0,0,1,327.915,48.5Z" transform="translate(-181.653 -16.247)"/><path class="b" d="M364.9,136.161c2.55,1.314.394,4.916-2.224,3.723-.684-.315-1.357-.668-1.993-1-7.792-4.038-16.825-5.526-25.763-6.672-2.182-.279-4.511-.526-6.53.337a44.18,44.18,0,0,1,17.041-1.02,112.251,112.251,0,0,1,16.641,3.575A15.246,15.246,0,0,1,364.9,136.161Z" transform="translate(-185.698 -55.499)"/><path class="a" d="M351.6,155.36c1.83,1.709-1.052,3.728-2.95,2.1-.526-.426-.983-.878-1.441-1.309-5.6-5.263-12.961-8.991-20.321-12.43-1.8-.847-9.227-1.7-11.21-1.656,5.179.463,15.747,2.1,20.448,4.206a113.207,113.207,0,0,1,13.334,7.487,14,14,0,0,1,2.14,1.6Z" transform="translate(-179.671 -60.675)"/><path class="b" d="M326.806,184.69c.226,2.492-3.249,2.1-3.586-.415-.089-.652-.142-1.309-.2-1.935-.662-7.629-3.68-15.332-6.835-22.793-.783-1.83-5.736-7.424-7.245-8.707,3.549,3.8,10.342,12.051,12.419,16.778a113.474,113.474,0,0,1,4.948,14.47A14.262,14.262,0,0,1,326.806,184.69Z" transform="translate(-176.474 -64.835)"/><path class="b" d="M342.468,52.663a.452.452,0,0,1-.216.068c-.137,0-.231-.142-.289-.268-.315-.678-.137-1.577-.615-2.1a7.4,7.4,0,0,0-1.162,1.914l-1.835-.526a2.724,2.724,0,0,0,.347,2.1,2.793,2.793,0,0,0-.862.589.952.952,0,0,0-.221.967,4.643,4.643,0,0,0,1.293.126,8.412,8.412,0,0,0,.137,2.408.437.437,0,0,0,.158.3c.131.084.31,0,.447-.074a4.306,4.306,0,0,0,1.5-1.577l.684,1.625a.689.689,0,0,0,.3.41.489.489,0,0,0,.573-.2,1.441,1.441,0,0,0,.2-.615l.258-1.546a.368.368,0,0,1,.084-.221.394.394,0,0,1,.268-.079h1.94c.11-.347-.231-.662-.563-.81s-.726-.252-.889-.573c-.336-.657.526-1.577.163-2.129C343.741,51.748,343.052,52.384,342.468,52.663Z" transform="translate(-190.049 -17.186)"/><path class="c" d="M352.975,196.068a.463.463,0,0,1-.216.063c-.142,0-.237-.142-.294-.268-.31-.673-.131-1.551-.61-2.1a7.28,7.28,0,0,0-1.167,1.951l-1.83-.563a2.708,2.708,0,0,0,.347,2.1,2.718,2.718,0,0,0-.862.584.957.957,0,0,0-.226.967,4.643,4.643,0,0,0,1.293.131,8.559,8.559,0,0,0,.137,2.4.478.478,0,0,0,.158.31c.137.084.31,0,.447-.079a4.17,4.17,0,0,0,1.5-1.577l.684,1.625a.725.725,0,0,0,.3.4.479.479,0,0,0,.568-.195,1.473,1.473,0,0,0,.205-.615l.252-1.551a.369.369,0,0,1,.084-.221.4.4,0,0,1,.273-.074c.641,0,1.288-.026,1.935,0,.11-.342-.231-.662-.563-.81s-.72-.252-.889-.573c-.336-.652.526-1.577.163-2.1C354.243,195.132,353.538,195.789,352.975,196.068Z" transform="translate(-195.03 -85.189)"/><path class="b" d="M382.483,99.923a.41.41,0,0,1-.216.063c-.142,0-.237-.137-.294-.263-.31-.678-.131-1.577-.615-2.1a7.429,7.429,0,0,0-1.162,1.956l-1.83-.568a2.708,2.708,0,0,0,.347,2.1,2.808,2.808,0,0,0-.862.584.952.952,0,0,0-.226.973,4.644,4.644,0,0,0,1.293.126,8.612,8.612,0,0,0,.137,2.408.436.436,0,0,0,.158.3c.131.084.31,0,.447-.074a4.206,4.206,0,0,0,1.5-1.577l.683,1.625a.736.736,0,0,0,.3.41.494.494,0,0,0,.573-.2,1.372,1.372,0,0,0,.2-.615l.258-1.577a.368.368,0,0,1,.084-.216.394.394,0,0,1,.268-.079h1.94c.11-.342-.231-.662-.563-.8s-.72-.252-.889-.573c-.336-.657.526-1.577.163-2.1C383.751,99,383.057,99.655,382.483,99.923Z" transform="translate(-209.022 -39.598)"/><path class="b" d="M262.757,209.6a.62.62,0,0,1-.3.089c-.195,0-.326-.195-.41-.368-.431-.946-.184-2.171-.852-2.965a10.12,10.12,0,0,0-1.619,2.724l-2.566-.81a3.807,3.807,0,0,0,.484,2.923,3.887,3.887,0,0,0-1.2.82,1.33,1.33,0,0,0-.31,1.346,6.515,6.515,0,0,0,1.8.184,11.933,11.933,0,0,0,.189,3.349.6.6,0,0,0,.221.426c.184.121.431,0,.62-.1a5.931,5.931,0,0,0,2.1-2.229l.952,2.266a1.052,1.052,0,0,0,.421.568.673.673,0,0,0,.794-.273,1.971,1.971,0,0,0,.284-.862l.352-2.156a.563.563,0,0,1,.121-.3.526.526,0,0,1,.379-.11c.9,0,1.8-.032,2.7-.026.158-.478-.321-.92-.783-1.125s-1-.352-1.236-.8c-.473-.91.741-2.177.226-2.965C264.528,208.305,263.545,209.215,262.757,209.6Z" transform="translate(-151.327 -91.164)"/><path class="b" d="M213.683,101.964a.625.625,0,0,1-.3.089c-.189,0-.326-.195-.4-.368-.436-.946-.184-2.171-.852-2.965a10.136,10.136,0,0,0-1.625,2.724l-2.55-.794a3.78,3.78,0,0,0,.478,2.923,3.859,3.859,0,0,0-1.2.82,1.33,1.33,0,0,0-.315,1.346,6.514,6.514,0,0,0,1.8.184,11.747,11.747,0,0,0,.195,3.349.473.473,0,0,0,.841.326,5.931,5.931,0,0,0,2.1-2.229l.946,2.266a1,1,0,0,0,.426.568.678.678,0,0,0,.794-.273,1.94,1.94,0,0,0,.279-.862l.358-2.156a.4.4,0,0,1,.494-.41c.9,0,1.8-.037,2.7-.032.152-.478-.326-.92-.783-1.125s-1.01-.352-1.241-.8c-.468-.91.747-2.177.231-2.965C215.449,100.665,214.466,101.575,213.683,101.964Z" transform="translate(-128.059 -40.119)"/><path class="c" d="M365.515,169.995a.305.305,0,0,1-.158.047c-.105,0-.174-.105-.221-.195-.231-.526-.095-1.151-.452-1.577a5.518,5.518,0,0,0-.862,1.446l-1.357-.421a2.05,2.05,0,0,0,.258,1.577,1.971,1.971,0,0,0-.636.431.7.7,0,0,0-.168.715,3.465,3.465,0,0,0,.957.1,6.308,6.308,0,0,0,.105,1.777.315.315,0,0,0,.116.226.326.326,0,0,0,.331-.053,3.212,3.212,0,0,0,1.115-1.183l.526,1.2a.526.526,0,0,0,.221.3.363.363,0,0,0,.426-.142,1.051,1.051,0,0,0,.147-.457l.189-1.146a.3.3,0,0,1,.063-.163.258.258,0,0,1,.2-.058h1.435c.079-.252-.174-.489-.421-.594a1.212,1.212,0,0,1-.657-.426c-.247-.484.4-1.157.126-1.577S365.93,169.784,365.515,169.995Z" transform="translate(-201.581 -73.101)"/><path class="c" d="M298.835,208.49a.421.421,0,0,1-.158.047.294.294,0,0,1-.216-.2c-.231-.5-.1-1.151-.457-1.577a5.43,5.43,0,0,0-.862,1.446l-1.351-.421a2.013,2.013,0,0,0,.252,1.551,2.208,2.208,0,0,0-.636.436.7.7,0,0,0-.168.715,3.27,3.27,0,0,0,.957.095,6.31,6.31,0,0,0,.105,1.782.326.326,0,0,0,.116.226c.1.063.231,0,.331-.053a3.208,3.208,0,0,0,1.115-1.183l.526,1.2a.526.526,0,0,0,.221.3.368.368,0,0,0,.426-.147,1.052,1.052,0,0,0,.147-.457l.189-1.146a.279.279,0,0,1,.063-.158.273.273,0,0,1,.2-.058h1.435c.079-.252-.174-.489-.415-.6s-.526-.184-.657-.426c-.252-.484.394-1.157.121-1.577S299.255,208.279,298.835,208.49Z" transform="translate(-169.96 -91.354)"/><path class="a" d="M234.307,73.75a.394.394,0,0,1-.158.047.294.294,0,0,1-.216-.2c-.231-.526-.1-1.151-.452-1.577a5.168,5.168,0,0,0-.862,1.446l-1.357-.421a1.993,1.993,0,0,0,.258,1.577,2.166,2.166,0,0,0-.641.436.7.7,0,0,0-.163.715,3.239,3.239,0,0,0,.957.095,6.31,6.31,0,0,0,.1,1.782.326.326,0,0,0,.116.226c.1.063.231,0,.331-.053a3.155,3.155,0,0,0,1.115-1.183l.526,1.2a.526.526,0,0,0,.226.3.363.363,0,0,0,.421-.147,1.051,1.051,0,0,0,.147-.457l.189-1.146a.268.268,0,0,1,.063-.158.273.273,0,0,1,.2-.058h1.435c.084-.252-.173-.489-.415-.6s-.526-.184-.657-.426c-.252-.484.394-1.157.121-1.577S234.728,73.539,234.307,73.75Z" transform="translate(-139.362 -27.458)"/><path class="a" d="M268.654,149.675a.31.31,0,0,1-.163.047c-.1,0-.173-.1-.216-.195-.231-.5-.1-1.151-.452-1.577a5.3,5.3,0,0,0-.862,1.446l-1.356-.421a2.035,2.035,0,0,0,.258,1.577,2.1,2.1,0,0,0-.636.436.7.7,0,0,0-.168.715,3.256,3.256,0,0,0,.957.095,6.311,6.311,0,0,0,.1,1.782.352.352,0,0,0,.116.226c.1.063.231,0,.331-.058a3.113,3.113,0,0,0,1.115-1.178l.526,1.2a.568.568,0,0,0,.226.3.358.358,0,0,0,.421-.147,1.052,1.052,0,0,0,.152-.457l.189-1.146a.237.237,0,0,1,.063-.158.258.258,0,0,1,.2-.058h1.43c.084-.252-.168-.489-.415-.6s-.526-.189-.657-.426c-.247-.484.4-1.157.121-1.577S269.069,149.469,268.654,149.675Z" transform="translate(-155.647 -63.465)"/><path class="a" d="M243.724,120.075a.289.289,0,0,1-.158.047c-.105,0-.174-.1-.216-.195-.231-.5-.1-1.151-.457-1.577a5.431,5.431,0,0,0-.862,1.446l-1.351-.421a2.014,2.014,0,0,0,.252,1.577,2.208,2.208,0,0,0-.636.436.7.7,0,0,0-.168.715,3.27,3.27,0,0,0,.957.095,6.31,6.31,0,0,0,.105,1.782.326.326,0,0,0,.116.226c.1.063.231,0,.331-.058a3.113,3.113,0,0,0,1.115-1.178l.526,1.2a.526.526,0,0,0,.221.3.368.368,0,0,0,.426-.147,1.052,1.052,0,0,0,.147-.457l.189-1.146a.268.268,0,0,1,.063-.158.273.273,0,0,1,.2-.058h1.435c.079-.252-.174-.489-.415-.6s-.526-.189-.657-.426c-.252-.484.394-1.157.121-1.577S244.145,119.869,243.724,120.075Z" transform="translate(-143.825 -49.428)"/><path class="a" d="M350.784,127.045a.3.3,0,0,1-.158.047c-.105,0-.173-.1-.221-.195-.226-.5-.095-1.151-.452-1.577a5.43,5.43,0,0,0-.862,1.446l-1.351-.421a2.014,2.014,0,0,0,.252,1.551,1.988,1.988,0,0,0-.636.436.7.7,0,0,0-.168.715,3.46,3.46,0,0,0,.957.095,6.31,6.31,0,0,0,.105,1.782.326.326,0,0,0,.116.226c.1.063.231,0,.331-.058a3.2,3.2,0,0,0,1.115-1.178l.526,1.2a.526.526,0,0,0,.221.3.368.368,0,0,0,.426-.147,1.051,1.051,0,0,0,.147-.457l.189-1.146a.294.294,0,0,1,.063-.163.279.279,0,0,1,.2-.053h1.435c.079-.252-.173-.489-.415-.6s-.526-.189-.657-.426c-.252-.484.394-1.157.121-1.577S351.2,126.839,350.784,127.045Z" transform="translate(-194.595 -52.733)"/><path class="c" d="M298.834,121.225a.289.289,0,0,1-.158.047c-.105,0-.173-.105-.216-.195-.231-.526-.1-1.151-.457-1.577a5.607,5.607,0,0,0-.862,1.446l-1.351-.421a2.024,2.024,0,0,0,.252,1.577,2.1,2.1,0,0,0-.636.431.71.71,0,0,0-.168.72,3.681,3.681,0,0,0,.957.095,6.309,6.309,0,0,0,.105,1.777.305.305,0,0,0,.116.226c.1.068.231,0,.331-.053a3.154,3.154,0,0,0,1.115-1.183l.526,1.2a.526.526,0,0,0,.221.3.358.358,0,0,0,.426-.142,1.051,1.051,0,0,0,.147-.457l.189-1.146a.294.294,0,0,1,.063-.163.331.331,0,0,1,.2-.058h1.435c.079-.252-.174-.489-.415-.594a1.232,1.232,0,0,1-.657-.426c-.252-.484.394-1.157.121-1.577S299.255,121.019,298.834,121.225Z" transform="translate(-169.96 -49.973)"/><path class="d" d="M282.534,128.315a.3.3,0,0,1-.158.047c-.105,0-.174-.1-.221-.195-.231-.526-.095-1.151-.452-1.577a5.606,5.606,0,0,0-.862,1.446l-1.357-.415a2.035,2.035,0,0,0,.258,1.551,2.061,2.061,0,0,0-.636.431.71.71,0,0,0-.168.72,3.68,3.68,0,0,0,.957.095A6.346,6.346,0,0,0,280,132.2a.326.326,0,0,0,.116.226c.1.063.231,0,.331-.058a3.155,3.155,0,0,0,1.115-1.183l.526,1.2a.526.526,0,0,0,.221.3.368.368,0,0,0,.426-.147,1.051,1.051,0,0,0,.147-.457l.189-1.146a.294.294,0,0,1,.063-.163.31.31,0,0,1,.2-.058h1.435c.079-.258-.174-.494-.415-.6a1.232,1.232,0,0,1-.657-.426c-.252-.484.394-1.157.121-1.577S282.955,128.109,282.534,128.315Z" transform="translate(-162.23 -53.336)"/><path class="c" d="M267.344,85.445a.31.31,0,0,1-.163.047c-.1,0-.173-.1-.216-.195-.231-.526-.1-1.151-.452-1.577a5.351,5.351,0,0,0-.862,1.441l-1.357-.415a1.993,1.993,0,0,0,.258,1.577,2.151,2.151,0,0,0-.641.431.72.72,0,0,0-.163.72,3.444,3.444,0,0,0,.957.095,6.344,6.344,0,0,0,.1,1.782.326.326,0,0,0,.116.226c.1.063.231,0,.331-.058a3.091,3.091,0,0,0,1.115-1.183l.526,1.2a.563.563,0,0,0,.226.3.357.357,0,0,0,.426-.195,1.053,1.053,0,0,0,.153-.457l.184-1.146a.294.294,0,0,1,.063-.163.331.331,0,0,1,.2-.058h1.435c.084-.258-.168-.494-.415-.6a1.212,1.212,0,0,1-.657-.426c-.247-.484.394-1.157.121-1.577S267.76,85.213,267.344,85.445Z" transform="translate(-155.027 -33.006)"/><path class="d" d="M297.275,141.44a.363.363,0,0,1-.163.047c-.1,0-.173-.105-.216-.2-.231-.5-.1-1.146-.452-1.577a5.379,5.379,0,0,0-.862,1.446l-1.357-.421a2,2,0,0,0,.258,1.577,2.056,2.056,0,0,0-.641.431.715.715,0,0,0-.163.715,3.445,3.445,0,0,0,.957.1,6.311,6.311,0,0,0,.1,1.777.352.352,0,0,0,.116.226.326.326,0,0,0,.331-.053,3.155,3.155,0,0,0,1.115-1.183l.526,1.2a.526.526,0,0,0,.226.3.363.363,0,0,0,.421-.142,1.052,1.052,0,0,0,.152-.457l.189-1.146a.216.216,0,0,1,.263-.221h1.43c.084-.252-.168-.489-.415-.594a1.212,1.212,0,0,1-.657-.426c-.247-.484.394-1.157.121-1.577S297.69,141.208,297.275,141.44Z" transform="translate(-169.22 -59.557)"/><g class="e" transform="translate(365.002 127.526)"><ellipse class="f" cx="9.459" cy="12.382" rx="9.459" ry="12.382" transform="translate(36.065 255.349)"/><path class="f" d="M836.711,683a14.886,14.886,0,0,0,1.977-7.566c0-6.835-4.238-12.387-9.464-12.387s-9.464,5.547-9.464,12.387A14.936,14.936,0,0,0,821.752,683a15.479,15.479,0,0,0,0,15.137,15.469,15.469,0,0,0,0,15.132,14.969,14.969,0,0,0-1.977,7.571c0,6.835,4.238,12.382,9.464,12.382s9.464-5.542,9.464-12.382a14.918,14.918,0,0,0-1.993-7.556,15.469,15.469,0,0,0,0-15.132A15.479,15.479,0,0,0,836.711,683Z" transform="translate(-783.716 -468.266)"/><ellipse class="f" cx="9.459" cy="12.382" rx="9.459" ry="12.382" transform="translate(36.065 179.667)"/><ellipse class="f" cx="9.459" cy="12.382" rx="9.459" ry="12.382" transform="translate(36.065 164.535)"/><path class="b" d="M832.143,365.924a44.772,44.772,0,0,0,3.523-5.189l-24.859-4.08,26.883.2a45.4,45.4,0,0,0,.868-35.906l-36.069,18.713,33.261-24.454a45.317,45.317,0,1,0-74.84,50.717,45.48,45.48,0,0,0-5.168,8.26l32.267,16.762-34.4-11.567a45.333,45.333,0,0,0,7.3,42.552,45.312,45.312,0,1,0,71.233,0,45.317,45.317,0,0,0,0-56.027Z" transform="translate(-751.208 -292.586)"/><path class="g" d="M751.219,484.748a45.117,45.117,0,0,0,9.7,28.014,45.312,45.312,0,1,0,71.233,0C838.221,505.07,751.219,479.664,751.219,484.748Z" transform="translate(-751.213 -383.396)"/></g><g class="e" transform="translate(41.231 127.526)"><ellipse class="f" cx="9.459" cy="12.382" rx="9.459" ry="12.382" transform="translate(35.649 255.348)"/><path class="f" d="M220.161,683a14.937,14.937,0,0,0,1.977-7.566c0-6.835-4.238-12.387-9.464-12.387s-9.464,5.547-9.464,12.387A14.884,14.884,0,0,0,205.2,683a15.479,15.479,0,0,0,0,15.137,15.469,15.469,0,0,0,0,15.132,14.916,14.916,0,0,0-1.977,7.571c0,6.835,4.238,12.382,9.464,12.382s9.464-5.542,9.464-12.382a14.969,14.969,0,0,0-1.977-7.571,15.469,15.469,0,0,0,0-15.132,15.479,15.479,0,0,0,0-15.137Z" transform="translate(-167.566 -468.266)"/><ellipse class="f" cx="9.459" cy="12.382" rx="9.459" ry="12.382" transform="translate(35.649 179.667)"/><ellipse class="f" cx="9.459" cy="12.382" rx="9.459" ry="12.382" transform="translate(35.649 164.535)"/><path class="b" d="M145.115,365.924a44.79,44.79,0,0,1-3.523-5.189l24.859-4.08-26.883.2a45.4,45.4,0,0,1-.868-35.906l36.069,18.713-33.261-24.454a45.317,45.317,0,1,1,74.84,50.717,45.488,45.488,0,0,1,5.168,8.26l-32.267,16.762,34.4-11.567a45.333,45.333,0,0,1-7.3,42.552,45.312,45.312,0,1,1-71.233,0,45.317,45.317,0,0,1,0-56.027Z" transform="translate(-135.419 -292.586)"/><path class="g" d="M226.043,484.748a45.117,45.117,0,0,1-9.7,28.014,45.312,45.312,0,1,1-71.233,0C139.042,505.07,226.043,479.664,226.043,484.748Z" transform="translate(-135.419 -383.396)"/></g><g class="e" transform="translate(193.235 127.552)"><ellipse class="f" cx="9.459" cy="12.382" rx="9.459" ry="12.382" transform="translate(35.649 255.323)"/><path class="f" d="M509.256,683a14.932,14.932,0,0,0,1.972-7.566c0-6.835-4.206-12.387-9.464-12.387S492.3,668.6,492.3,675.437A14.885,14.885,0,0,0,494.287,683a15.479,15.479,0,0,0,0,15.137,15.469,15.469,0,0,0,0,15.132,14.916,14.916,0,0,0-1.977,7.571c0,6.835,4.238,12.382,9.464,12.382s9.464-5.542,9.464-12.382a14.97,14.97,0,0,0-1.972-7.571,15.5,15.5,0,0,0,0-15.132,15.511,15.511,0,0,0,0-15.137Z" transform="translate(-456.661 -468.292)"/><ellipse class="f" cx="9.459" cy="12.382" rx="9.459" ry="12.382" transform="translate(35.649 179.642)"/><ellipse class="f" cx="9.459" cy="12.382" rx="9.459" ry="12.382" transform="translate(35.649 164.51)"/><path class="b" d="M434.236,365.947a44.787,44.787,0,0,1-3.523-5.189l24.854-4.08-26.878.2a45.4,45.4,0,0,1-.867-35.906l36.069,18.713L430.624,315.23a45.317,45.317,0,1,1,74.845,50.717,45.174,45.174,0,0,1,5.163,8.26l-32.283,16.762,34.4-11.567a45.333,45.333,0,0,1-7.3,42.552,45.312,45.312,0,1,1-71.233,0,45.317,45.317,0,0,1,0-56.027Z" transform="translate(-424.519 -292.634)"/><path class="g" d="M515.143,484.748a45.118,45.118,0,0,1-9.7,28.014,45.312,45.312,0,1,1-71.233,0C428.142,505.07,515.143,479.664,515.143,484.748Z" transform="translate(-424.519 -383.422)"/></g><g class="h" transform="translate(251.101 61.684)"><path class="a" d="M578.773,183.907a1.052,1.052,0,0,0-1.709,1.22c.194.294.41.578.615.852,2.466,3.333,3.744,7.361,4.848,11.378a5.4,5.4,0,0,1,.221,3,18.709,18.709,0,0,0-.526-7.834,48.766,48.766,0,0,0-2.771-7.4,6.548,6.548,0,0,0-.678-1.22Z" transform="translate(-554.648 -175.02)"/><path class="b" d="M548.772,197.589a1.307,1.307,0,0,0-.221,2.6c.436.037.873.047,1.293.058,5.1.137,9.916,1.987,14.548,3.975a6.214,6.214,0,0,1,3,2.1,21.847,21.847,0,0,0-7.761-5.5,57.451,57.451,0,0,0-9.159-2.96,7.833,7.833,0,0,0-1.7-.279Z" transform="translate(-540.662 -181.694)"/><path class="c" d="M550.267,209.389c-1.052.037-.815,1.535.247,1.541h.815a29.773,29.773,0,0,1,9.706,1.735,4.937,4.937,0,0,1,2.182,1.1,17.51,17.51,0,0,0-5.673-2.913,43.281,43.281,0,0,0-6.162-1.378,5.94,5.94,0,0,0-1.115-.084Z" transform="translate(-541.694 -187.289)"/><path class="a" d="M591.392,249.933c.3,1.009,1.688.41,1.435-.62-.068-.268-.147-.526-.226-.783a29.974,29.974,0,0,1-.725-9.832,4.978,4.978,0,0,1,.526-2.387,17.579,17.579,0,0,0-1.43,6.215,43.651,43.651,0,0,0,.216,6.309,6,6,0,0,0,.2,1.1Z" transform="translate(-561.304 -200.056)"/><path class="c" d="M554.077,181.582c-.636-.11-.683.815-.053.952l.489.095a18.26,18.26,0,0,1,5.579,2.266,3.024,3.024,0,0,1,1.162.931,10.647,10.647,0,0,0-3.018-2.455,26.685,26.685,0,0,0-3.512-1.577A3.956,3.956,0,0,0,554.077,181.582Z" transform="translate(-543.585 -174.099)"/><path class="b" d="M535.293,225.2c-1.6.825-.247,3.1,1.4,2.345.431-.2.852-.421,1.251-.626,4.911-2.55,10.61-3.486,16.215-4.206a7.95,7.95,0,0,1,4.117.21,27.866,27.866,0,0,0-10.736-.641,70.144,70.144,0,0,0-10.479,2.256,9.346,9.346,0,0,0-1.772.663Z" transform="translate(-534.575 -193.285)"/><path class="a" d="M544.335,237.3c-1.157,1.052.647,2.345,1.856,1.314.315-.273.62-.557.9-.825,3.518-3.3,8.166-5.652,12.792-7.818a31.5,31.5,0,0,1,7.061-1.052c-3.26.294-9.922,1.309-12.882,2.629a71.421,71.421,0,0,0-8.413,4.732A8.939,8.939,0,0,0,544.335,237.3Z" transform="translate(-539.027 -196.552)"/><path class="b" d="M560.289,253.844c-.336,1.541,1.867,1.577,2.277,0,.105-.4.195-.8.279-1.193,1.015-4.732,3.5-9.291,6.078-13.7a28.83,28.83,0,0,1,5.216-4.869c-2.518,2.1-7.419,6.714-9.085,9.5a71.5,71.5,0,0,0-4.206,8.654,9.378,9.378,0,0,0-.557,1.609Z" transform="translate(-546.752 -198.999)"/><path class="b" d="M589.624,168.085c-.789-1.6-3.034-.284-2.319,1.362.184.426.394.847.594,1.251,2.419,4.9,3.255,10.558,3.875,16.126a7.905,7.905,0,0,1-.273,4.075,27.867,27.867,0,0,0,.8-10.631,70.508,70.508,0,0,0-2.051-10.421A9.373,9.373,0,0,0,589.624,168.085Z" transform="translate(-559.515 -167.358)"/><path class="b" d="M566.27,172.607a.236.236,0,0,0,.131.037.232.232,0,0,0,.184-.163c.2-.431.084-.983.389-1.341a4.616,4.616,0,0,1,.731,1.23l1.157-.358a1.714,1.714,0,0,1-.221,1.32,1.787,1.787,0,0,1,.526.368.6.6,0,0,1,.137.61,2.807,2.807,0,0,1-.815.084,5.262,5.262,0,0,1-.084,1.514.294.294,0,0,1-.1.195.273.273,0,0,1-.279-.047,2.681,2.681,0,0,1-.952-1l-.426,1.02a.463.463,0,0,1-.195.258.3.3,0,0,1-.357-.121.941.941,0,0,1-.126-.389l-.163-.978a.221.221,0,0,0-.053-.137.237.237,0,0,0-.168-.047h-1.22c-.074-.216.142-.415.352-.526s.452-.163.557-.363c.216-.415-.337-.988-.1-1.341S565.928,172.428,566.27,172.607Z" transform="translate(-548.696 -169.152)"/><path class="a" d="M606.6,183.861a1.052,1.052,0,1,1,1.714,1.22c-.2.294-.41.578-.615.852-2.466,3.333-3.749,7.361-4.848,11.378a5.4,5.4,0,0,0-.226,3,18.715,18.715,0,0,1,.526-7.834,48.233,48.233,0,0,1,2.771-7.4,6.525,6.525,0,0,1,.678-1.22Z" transform="translate(-566.753 -174.975)"/><path class="b" d="M624.028,197.589a1.307,1.307,0,0,1,.216,2.6c-.431.037-.873.047-1.288.058-5.1.137-9.922,1.987-14.554,3.975a6.223,6.223,0,0,0-2.992,2.1,21.847,21.847,0,0,1,7.76-5.5,57.568,57.568,0,0,1,9.154-2.96,7.933,7.933,0,0,1,1.7-.279Z" transform="translate(-568.166 -181.694)"/><path class="a" d="M628.32,209.39c1.052.037.81,1.535-.247,1.541h-.815a29.773,29.773,0,0,0-9.706,1.735,4.911,4.911,0,0,0-2.182,1.1,17.457,17.457,0,0,1,5.673-2.913,43.289,43.289,0,0,1,6.173-1.356,5.941,5.941,0,0,1,1.1-.105Z" transform="translate(-572.889 -187.29)"/><path class="c" d="M629.827,181.582c.636-.11.683.815.052.952l-.494.095a18.23,18.23,0,0,0-5.573,2.266,3.024,3.024,0,0,0-1.162.931,10.624,10.624,0,0,1,3.013-2.455,27.07,27.07,0,0,1,3.517-1.577A3.818,3.818,0,0,1,629.827,181.582Z" transform="translate(-576.342 -174.099)"/><path class="c" d="M603.966,258.41c-.142.626-1.009.315-.894-.321a2.191,2.191,0,0,1,.105-.489,18.329,18.329,0,0,0,.058-6.02,3.038,3.038,0,0,0-.415-1.43,10.61,10.61,0,0,1,1.1,3.728,27.089,27.089,0,0,1,.121,3.859A3.273,3.273,0,0,1,603.966,258.41Z" transform="translate(-566.938 -206.619)"/><path class="a" d="M626.838,249.025c.494.836-.72.778-1.251-.058-.142-.221-.268-.442-.394-.652a45.032,45.032,0,0,0-6.1-7.54,8.451,8.451,0,0,0-1.888-1.635,30.156,30.156,0,0,1,4.958,4.238c1.483,1.577,2.787,3.155,4.069,4.774A7.874,7.874,0,0,1,626.838,249.025Z" transform="translate(-573.757 -201.398)"/><path class="c" d="M551.785,249.025c-.494.836.72.778,1.257-.058.137-.221.268-.442.389-.652a45.029,45.029,0,0,1,6.1-7.54,8.479,8.479,0,0,1,1.893-1.635,30.2,30.2,0,0,0-4.963,4.238c-1.477,1.577-2.787,3.155-4.07,4.774A7.9,7.9,0,0,0,551.785,249.025Z" transform="translate(-542.682 -201.398)"/><path class="c" d="M582.391,258.41c.142.626,1.01.315.9-.321-.032-.168-.068-.331-.105-.489a18.184,18.184,0,0,1-.058-6.02,2.977,2.977,0,0,1,.41-1.43,10.609,10.609,0,0,0-1.1,3.728,26.336,26.336,0,0,0-.116,3.859A3.683,3.683,0,0,0,582.391,258.41Z" transform="translate(-557.204 -206.619)"/><path class="c" d="M620.192,193.552c.631-.11.678.81.047.952-.163.037-.331.063-.489.089a18.144,18.144,0,0,0-5.579,2.271,3.065,3.065,0,0,0-1.162.931,10.662,10.662,0,0,1,3.018-2.461,26.658,26.658,0,0,1,3.512-1.577,3.44,3.44,0,0,1,.652-.205Z" transform="translate(-571.77 -179.775)"/><path class="c" d="M610.848,170c.526-.342.936.494.4.862l-.421.268a18.417,18.417,0,0,0-4.327,4.206,2.976,2.976,0,0,0-.726,1.3,10.675,10.675,0,0,1,1.877-3.412,26.728,26.728,0,0,1,2.66-2.792A3.362,3.362,0,0,1,610.848,170Z" transform="translate(-568.342 -168.572)"/><path class="b" d="M634.157,225.2c1.6.825.247,3.1-1.4,2.345-.431-.2-.852-.421-1.257-.626-4.906-2.55-10.605-3.486-16.21-4.206a7.95,7.95,0,0,0-4.117.21,27.867,27.867,0,0,1,10.731-.641,70.061,70.061,0,0,1,10.484,2.256A9.616,9.616,0,0,1,634.157,225.2Z" transform="translate(-570.898 -193.285)"/><path class="a" d="M625.764,237.3c1.157,1.052-.647,2.345-1.856,1.314-.315-.273-.62-.557-.91-.825-3.517-3.3-8.16-5.652-12.792-7.818a31.686,31.686,0,0,0-7.056-1.052c3.26.294,9.916,1.309,12.877,2.629a71.074,71.074,0,0,1,8.412,4.732,8.94,8.94,0,0,1,1.325,1.02Z" transform="translate(-567.094 -196.552)"/><path class="b" d="M610.142,255.77c.142,1.577-2.05,1.32-2.261-.258-.053-.415-.089-.825-.126-1.22-.415-4.806-2.313-9.659-4.317-14.359a29.831,29.831,0,0,0-4.558-5.484c2.235,2.392,6.514,7.592,7.824,10.568a71.647,71.647,0,0,1,3.113,9.112,8.885,8.885,0,0,1,.326,1.64Z" transform="translate(-565.07 -199.174)"/><path class="b" d="M620.032,172.607a.253.253,0,0,1-.137.037.247.247,0,0,1-.184-.163c-.195-.431-.084-.983-.384-1.341a4.633,4.633,0,0,0-.736,1.23l-1.151-.358a1.687,1.687,0,0,0,.221,1.32,1.788,1.788,0,0,0-.526.368.6.6,0,0,0-.142.61,2.85,2.85,0,0,0,.815.084,5.429,5.429,0,0,0,.089,1.514.294.294,0,0,0,.1.195.273.273,0,0,0,.279-.047,2.681,2.681,0,0,0,.952-1l.426,1.02a.478.478,0,0,0,.189.258.31.31,0,0,0,.363-.121.941.941,0,0,0,.126-.389l.163-.978a.22.22,0,0,1,.053-.137.237.237,0,0,1,.168-.047h1.22c.074-.216-.147-.415-.352-.526s-.457-.163-.563-.363c-.21-.415.342-.988.105-1.341S620.389,172.428,620.032,172.607Z" transform="translate(-573.645 -169.152)"/><path class="c" d="M626.647,262.937a.32.32,0,0,1-.137.042c-.089,0-.147-.089-.184-.168-.194-.426-.084-.983-.384-1.341a4.5,4.5,0,0,0-.736,1.23l-1.152-.357a1.709,1.709,0,0,0,.216,1.32,1.751,1.751,0,0,0-.526.373.6.6,0,0,0-.142.61,3.047,3.047,0,0,0,.815.079,5.414,5.414,0,0,0,.084,1.514.3.3,0,0,0,.1.195c.084.053.195,0,.284-.047a2.672,2.672,0,0,0,.946-1l.431,1.02a.436.436,0,0,0,.189.258.305.305,0,0,0,.358-.121.928.928,0,0,0,.131-.389l.158-.978a.31.31,0,0,1,.053-.137.242.242,0,0,1,.173-.047h1.22c.068-.216-.147-.415-.352-.526s-.457-.163-.563-.363c-.21-.415.337-.983.105-1.341S627,262.758,626.647,262.937Z" transform="translate(-576.779 -211.988)"/><path class="b" d="M645.227,202.387a.343.343,0,0,1-.137.042c-.089,0-.147-.089-.184-.168-.2-.426-.084-.983-.389-1.341a4.616,4.616,0,0,0-.731,1.23l-1.157-.358a1.714,1.714,0,0,0,.221,1.32,1.693,1.693,0,0,0-.526.373.6.6,0,0,0-.142.61,3.023,3.023,0,0,0,.815.079,5.414,5.414,0,0,0,.084,1.514.294.294,0,0,0,.1.195.273.273,0,0,0,.279-.047,2.68,2.68,0,0,0,.952-1l.431,1.02a.436.436,0,0,0,.189.258.3.3,0,0,0,.357-.121.849.849,0,0,0,.126-.389l.163-.978a.221.221,0,0,1,.053-.137.237.237,0,0,1,.168-.047h1.225c.068-.216-.147-.415-.358-.526s-.452-.163-.557-.363c-.216-.415.337-.988.105-1.341S645.584,202.208,645.227,202.387Z" transform="translate(-585.59 -183.274)"/><path class="b" d="M569.816,271.475a.4.4,0,0,1-.189.058c-.121,0-.205-.126-.258-.237-.273-.594-.116-1.362-.526-1.866a6.433,6.433,0,0,0-1.02,1.714l-1.609-.494a2.387,2.387,0,0,0,.3,1.84,2.418,2.418,0,0,0-.757.526.836.836,0,0,0-.2.847,3.956,3.956,0,0,0,1.136.116,7.652,7.652,0,0,0,.121,2.1.4.4,0,0,0,.142.273c.116.074.268,0,.389-.068a3.8,3.8,0,0,0,1.325-1.4l.594,1.425a.626.626,0,0,0,.268.358.426.426,0,0,0,.526-.174,1.2,1.2,0,0,0,.179-.526l.221-1.357a.263.263,0,0,1,.315-.263h1.7c.1-.3-.205-.584-.494-.71s-.631-.221-.778-.526c-.294-.573.468-1.372.142-1.867C570.931,270.655,570.316,271.228,569.816,271.475Z" transform="translate(-549.25 -215.762)"/><path class="b" d="M538.9,203.675a.394.394,0,0,1-.189.053c-.121,0-.205-.121-.258-.231-.273-.594-.116-1.367-.526-1.867a6.439,6.439,0,0,0-1.02,1.714l-1.609-.5a2.387,2.387,0,0,0,.3,1.84,2.629,2.629,0,0,0-.757.526.836.836,0,0,0-.195.852,4.09,4.09,0,0,0,1.13.116,7.665,7.665,0,0,0,.121,2.1.389.389,0,0,0,.142.268c.116.079.268,0,.389-.063a3.774,3.774,0,0,0,1.325-1.4l.594,1.43a.684.684,0,0,0,.268.358.436.436,0,0,0,.5-.174,1.224,1.224,0,0,0,.179-.526l.221-1.362a.341.341,0,0,1,.079-.189.31.31,0,0,1,.237-.068h1.7c.1-.3-.2-.584-.494-.71s-.631-.226-.778-.526c-.294-.573.468-1.372.147-1.867C540.013,202.876,539.4,203.428,538.9,203.675Z" transform="translate(-534.59 -183.61)"/><path class="c" d="M634.544,246.523a.173.173,0,0,1-.1.032.184.184,0,0,1-.137-.121c-.142-.321-.058-.726-.284-.994a3.469,3.469,0,0,0-.526.91l-.857-.263a1.278,1.278,0,0,0,.163.978,1.258,1.258,0,0,0-.4.273.442.442,0,0,0-.105.452,2.1,2.1,0,0,0,.6.058,3.867,3.867,0,0,0,.068,1.125.21.21,0,0,0,.074.142.2.2,0,0,0,.205-.037,1.962,1.962,0,0,0,.7-.747l.315.762a.347.347,0,0,0,.142.189.231.231,0,0,0,.268-.095.725.725,0,0,0,.084-.3l.116-.726a.142.142,0,0,1,.168-.137h.9c.053-.158-.105-.3-.258-.373s-.342-.121-.415-.268c-.158-.3.247-.731.074-.994S634.812,246.4,634.544,246.523Z" transform="translate(-580.907 -204.386)"/><path class="c" d="M592.544,270.773a.22.22,0,0,1-.1.032.184.184,0,0,1-.137-.126c-.142-.315-.058-.72-.284-.988a3.4,3.4,0,0,0-.526.91l-.857-.263a1.283,1.283,0,0,0,.163.978,1.257,1.257,0,0,0-.4.273.442.442,0,0,0-.105.452,2.1,2.1,0,0,0,.6.058,3.816,3.816,0,0,0,.068,1.12.226.226,0,0,0,.068.147c.063.037.147,0,.21-.037a1.961,1.961,0,0,0,.7-.747l.315.762a.348.348,0,0,0,.142.189.237.237,0,0,0,.268-.095.647.647,0,0,0,.089-.284l.121-.726a.142.142,0,0,1,.168-.137h.9c.052-.158-.105-.31-.258-.373s-.342-.121-.415-.268c-.158-.3.247-.731.074-.994S592.807,270.647,592.544,270.773Z" transform="translate(-560.989 -215.886)"/><path class="a" d="M551.912,185.9a.247.247,0,0,1-.1.032c-.068,0-.11-.068-.137-.126-.147-.315-.063-.726-.289-.988a3.309,3.309,0,0,0-.526.91l-.894-.289a1.251,1.251,0,0,0,.158.978,1.422,1.422,0,0,0-.4.273.447.447,0,0,0-.105.452,2.319,2.319,0,0,0,.6.063,4,4,0,0,0,.063,1.12.2.2,0,0,0,.074.142c.063.042.142,0,.205-.032a2,2,0,0,0,.7-.747l.315.757a.326.326,0,0,0,.142.189.221.221,0,0,0,.268-.089.692.692,0,0,0,.095-.289l.116-.72a.188.188,0,0,1,.042-.105.168.168,0,0,1,.126-.032h.9c.047-.163-.11-.31-.263-.379s-.336-.116-.415-.268c-.158-.3.247-.726.079-.988S552.149,185.772,551.912,185.9Z" transform="translate(-541.699 -175.639)"/><path class="a" d="M573.535,233.7a.169.169,0,0,1-.1,0c-.063,0-.11-.063-.137-.121-.147-.315-.063-.726-.284-.994a3.3,3.3,0,0,0-.526.915l-.852-.268a1.257,1.257,0,0,0,.163.978,1.341,1.341,0,0,0-.4.273.452.452,0,0,0-.105.452,2.338,2.338,0,0,0,.6.063,4,4,0,0,0,.063,1.12.211.211,0,0,0,.074.142c.063.042.147,0,.21-.032a1.987,1.987,0,0,0,.7-.747l.321.757a.326.326,0,0,0,.142.189.231.231,0,0,0,.263-.089.625.625,0,0,0,.095-.289l.121-.72a.184.184,0,0,1,.037-.105.21.21,0,0,1,.126-.037h.9c.052-.163-.11-.31-.263-.379s-.337-.116-.415-.268c-.152-.3.252-.731.079-.994S573.8,233.573,573.535,233.7Z" transform="translate(-551.976 -198.292)"/><path class="a" d="M557.836,215.083a.221.221,0,0,1-.1.032.184.184,0,0,1-.137-.126c-.147-.315-.063-.726-.284-.988a3.273,3.273,0,0,0-.526.91l-.852-.263a1.262,1.262,0,0,0,.163.978,1.341,1.341,0,0,0-.4.273.453.453,0,0,0-.105.452,2.105,2.105,0,0,0,.6.058,4,4,0,0,0,.063,1.12.21.21,0,0,0,.074.147c.063.037.147,0,.21-.037a1.95,1.95,0,0,0,.7-.747l.321.762a.348.348,0,0,0,.142.189.226.226,0,0,0,.263-.095.675.675,0,0,0,.095-.289l.121-.72a.168.168,0,0,1,.037-.1.179.179,0,0,1,.126-.037h.9c.053-.158-.11-.31-.263-.373s-.337-.121-.415-.268c-.158-.3.252-.731.079-.994S558.1,214.952,557.836,215.083Z" transform="translate(-544.531 -189.477)"/><path class="a" d="M625.269,219.473a.246.246,0,0,1-.1.032.174.174,0,0,1-.137-.126c-.147-.315-.063-.72-.289-.988a3.391,3.391,0,0,0-.526.91l-.852-.263a1.262,1.262,0,0,0,.158.978,1.32,1.32,0,0,0-.4.273.442.442,0,0,0-.105.452,2.1,2.1,0,0,0,.6.058,4,4,0,0,0,.063,1.12.21.21,0,0,0,.074.147c.063.037.142,0,.205-.037a1.962,1.962,0,0,0,.7-.747l.315.762a.347.347,0,0,0,.142.189.231.231,0,0,0,.268-.095.674.674,0,0,0,.095-.289l.116-.72a.142.142,0,0,1,.168-.137h.9c.047-.158-.11-.31-.263-.373s-.337-.121-.415-.268c-.158-.3.247-.731.079-.994S625.532,219.342,625.269,219.473Z" transform="translate(-576.506 -191.558)"/><path class="c" d="M592.544,215.8a.173.173,0,0,1-.1.032.184.184,0,0,1-.137-.121c-.142-.315-.058-.726-.284-.994a3.468,3.468,0,0,0-.526.91l-.857-.263a1.278,1.278,0,0,0,.163.978,1.257,1.257,0,0,0-.4.273.442.442,0,0,0-.105.452,2.1,2.1,0,0,0,.6.058,3.852,3.852,0,0,0,.068,1.125.226.226,0,0,0,.068.142.21.21,0,0,0,.21-.037,1.96,1.96,0,0,0,.7-.747l.315.762a.348.348,0,0,0,.142.189.237.237,0,0,0,.268-.095.646.646,0,0,0,.089-.284l.121-.726a.142.142,0,0,1,.168-.137h.9c.052-.158-.105-.3-.258-.373s-.342-.121-.415-.268c-.158-.3.247-.731.074-.994S592.807,215.677,592.544,215.8Z" transform="translate(-560.989 -189.818)"/><path class="d" d="M582.279,220.273a.268.268,0,0,1-.105.032c-.063,0-.105-.068-.137-.126-.142-.315-.058-.726-.284-.988a3.393,3.393,0,0,0-.526.91l-.857-.263a1.283,1.283,0,0,0,.163.978,1.231,1.231,0,0,0-.4.273.442.442,0,0,0-.105.452,2.1,2.1,0,0,0,.6.058,4,4,0,0,0,.068,1.12.189.189,0,0,0,.074.142c.063.042.142,0,.205-.032a2,2,0,0,0,.7-.747l.315.757a.342.342,0,0,0,.142.195.231.231,0,0,0,.268-.095.784.784,0,0,0,.095-.289l.116-.72a.142.142,0,0,1,.168-.137h.9c.047-.158-.11-.31-.263-.379s-.337-.116-.415-.263c-.158-.31.247-.731.074-.994S582.542,220.142,582.279,220.273Z" transform="translate(-556.119 -191.938)"/><path class="c" d="M572.7,193.238a.168.168,0,0,1-.1.026c-.063,0-.11-.063-.137-.121-.142-.316-.058-.726-.284-.994a3.468,3.468,0,0,0-.526.91l-.857-.263a1.278,1.278,0,0,0,.163.978,1.257,1.257,0,0,0-.4.273.442.442,0,0,0-.105.452,2.3,2.3,0,0,0,.6.063,3.818,3.818,0,0,0,.068,1.12.225.225,0,0,0,.068.142c.063.042.147,0,.21-.037a1.946,1.946,0,0,0,.7-.741l.315.757a.347.347,0,0,0,.142.189.242.242,0,0,0,.268-.089.687.687,0,0,0,.089-.289l.121-.72a.19.19,0,0,1,.042-.105.2.2,0,0,1,.126-.037h.9c.052-.163-.105-.31-.258-.379s-.342-.121-.415-.268c-.158-.3.247-.731.074-.994S572.967,193.123,572.7,193.238Z" transform="translate(-551.581 -179.115)"/><path class="d" d="M591.559,228.518a.153.153,0,0,1-.237-.095c-.147-.315-.063-.726-.289-.994a3.474,3.474,0,0,0-.526.91l-.852-.263a1.273,1.273,0,0,0,.158.978,1.383,1.383,0,0,0-.4.273.442.442,0,0,0-.105.452,2.1,2.1,0,0,0,.6.058,4.025,4.025,0,0,0,.063,1.125.21.21,0,0,0,.074.142.2.2,0,0,0,.205-.037,1.988,1.988,0,0,0,.7-.741l.315.757a.347.347,0,0,0,.142.189.231.231,0,0,0,.268-.095.653.653,0,0,0,.079-.294l.116-.726a.216.216,0,0,1,.042-.1.174.174,0,0,1,.126-.037h.9c.053-.158-.11-.3-.263-.373s-.336-.121-.415-.268c-.158-.3.252-.731.079-.994S591.822,228.387,591.559,228.518Z" transform="translate(-560.52 -195.845)"/></g><path class="f" d="M892.848,694.137a12.982,12.982,0,0,0,1.719-6.593c0-5.957-3.68-10.784-8.239-10.784s-8.239,4.827-8.239,10.784a12.981,12.981,0,0,0,1.719,6.593,13.5,13.5,0,0,0,0,13.187,13.5,13.5,0,0,0,0,13.187,13.5,13.5,0,0,0,0,13.187,13,13,0,0,0-1.719,6.593c0,5.957,3.68,10.789,8.239,10.789s8.239-4.832,8.239-10.789a13,13,0,0,0-1.719-6.593,13.5,13.5,0,0,0,0-13.187,13.5,13.5,0,0,0,0-13.187A13.5,13.5,0,0,0,892.848,694.137Z" transform="translate(-446.374 -347.241)"/><ellipse class="f" cx="8.239" cy="10.789" rx="8.239" ry="10.789" transform="translate(431.715 316.332)"/><ellipse class="f" cx="8.239" cy="10.789" rx="8.239" ry="10.789" transform="translate(431.715 303.145)"/><path class="b" d="M827.466,417.791a39.422,39.422,0,0,1-3.065-4.516l21.652-3.56-23.418.174a39.549,39.549,0,0,1-.752-31.268l31.416,16.3-28.976-21.31a39.481,39.481,0,1,1,65.2,44.166,39.652,39.652,0,0,1,4.5,7.2l-28.1,14.638,29.97-10.058a39.518,39.518,0,0,1-6.362,37.073,39.476,39.476,0,1,1-62.042,0,39.5,39.5,0,0,1,0-48.814Z" transform="translate(-418.365 -194.091)"/><path class="g" d="M897.97,521.395a39.323,39.323,0,0,1-8.444,24.407,39.476,39.476,0,1,1-62.042,0C822.168,539.082,897.97,516.963,897.97,521.395Z" transform="translate(-418.367 -273.289)"/><path class="f" d="M318.291,700.508a13.759,13.759,0,0,0,1.824-6.982c0-6.31-3.907-11.425-8.728-11.425s-8.728,5.116-8.728,11.425a13.76,13.76,0,0,0,1.824,6.982,14.275,14.275,0,0,0,0,13.965,14.275,14.275,0,0,0,0,13.965,14.264,14.264,0,0,0,0,13.96,13.791,13.791,0,0,0-1.825,6.982c0,6.309,3.907,11.425,8.728,11.425s8.728-5.116,8.728-11.425a13.791,13.791,0,0,0-1.824-6.982,14.265,14.265,0,0,0,0-13.96,14.275,14.275,0,0,0,0-13.965A14.275,14.275,0,0,0,318.291,700.508Z" transform="translate(-173.496 -349.774)"/><ellipse class="f" cx="8.728" cy="11.425" rx="8.728" ry="11.425" transform="translate(129.164 318.367)"/><ellipse class="f" cx="8.728" cy="11.425" rx="8.728" ry="11.425" transform="translate(129.164 304.402)"/><path class="b" d="M314.079,408.029a42.509,42.509,0,0,0,3.249-4.785l-22.914-3.775,24.8.184a41.874,41.874,0,0,0,.8-33.124l-33.293,17.261,30.685-22.556a41.8,41.8,0,1,0-69.046,46.795,41.576,41.576,0,0,0-4.764,7.624l29.786,15.453-31.742-10.652a41.847,41.847,0,0,0,6.741,39.255,41.805,41.805,0,1,0,65.723,0,41.815,41.815,0,0,0,0-51.69Z" transform="translate(-143.516 -187.748)"/><path class="g" d="M239.395,517.584a41.642,41.642,0,0,0,8.938,25.842,41.8,41.8,0,1,0,65.723,0C319.655,536.312,239.395,512.888,239.395,517.584Z" transform="translate(-143.492 -271.465)"/><ellipse class="f" cx="285.5" cy="13.949" rx="285.5" ry="13.949" transform="translate(0 395.699)"/><path class="i" d="M586.635,704.327a.92.92,0,0,0-.631.557h-.1l-.389-.063s-2.04-.168-2.419-.142a.758.758,0,0,1-.62-.352l-1.52-1.283-.116-.1.268-.095s-4.075-5.058-4.953-5.158a6.7,6.7,0,0,1-2.345-1.293v-.079c-.032-.168-.053-.342-.074-.526l.215.131h0v-.179h0a3.281,3.281,0,0,1,.61-1.735,8.167,8.167,0,0,0,1.3-1.73,2.53,2.53,0,0,0,.132-.91,3.008,3.008,0,0,0-.421-1.577,1.992,1.992,0,0,0-1.336-.92,1.111,1.111,0,0,1-.431-.058c-.852-.2-1.162-1.341-1.987-1.619a1.687,1.687,0,0,0-1.183.121c-.373.158-.7.389-1.052.568a6.835,6.835,0,0,0-1.1.563l-.105.089h0l-.068.063h0a2.284,2.284,0,0,0-.352.463v.026a.066.066,0,0,1-.026.053v.347a.162.162,0,0,1,0,.042v.058a.1.1,0,0,0,0,.042.192.192,0,0,0,0,.058v.1a.068.068,0,0,1,0,.032v.089h0a1.839,1.839,0,0,0,.394.557l-.047.047a3.586,3.586,0,0,0-1.1,2.592,3.694,3.694,0,0,0,.058.641,3.377,3.377,0,0,0-.6-.363,5.26,5.26,0,0,0-2.24-.526,15.554,15.554,0,0,1-3.044-.489,1.283,1.283,0,0,1,.1.273l-.252-.142a7.446,7.446,0,0,0-2.377-.8s-.526.074-.594-1.052a4.76,4.76,0,0,0-.189-1.02,17.763,17.763,0,0,1-.846-3.092l-.168-1.635s.794-4.243.316-6.041a1.257,1.257,0,0,0-.442-1.462c-2-1.472-4.017,4.264-4.017,4.264l-.752.726a1.609,1.609,0,0,0-.636-.242,3.55,3.55,0,0,0-.683,1.541,7.531,7.531,0,0,1-2.1,2.4c-.652.573-1.283,1.167-1.909,1.762a7.191,7.191,0,0,1-3.765,1.43l-.973.158a3.007,3.007,0,0,0,.116-.82,3.071,3.071,0,0,0-2.413-2.987.773.773,0,0,0,0-.221.909.909,0,0,0-.231-.415,4.395,4.395,0,0,0-1.7-1.472,2.212,2.212,0,0,0-.92-.147h-.226a2.35,2.35,0,0,0-1.719.894c-.252.342-.4.741-.626,1.1a4.965,4.965,0,0,1-1.714,1.577c-.4.242-.836.457-1.22.736a4.58,4.58,0,0,0-1.693,4.569,6.891,6.891,0,0,1,.394,2.208,3.8,3.8,0,0,1-.7,1.577,5.053,5.053,0,0,0-.778,1.577,1.545,1.545,0,0,0,.484,1.577,3.827,3.827,0,0,1,.526.358,1.745,1.745,0,0,1,.247.389,3.875,3.875,0,0,0,2.4,1.867,1.579,1.579,0,0,0,.494.053h.053a.826.826,0,0,0,.894-.41.869.869,0,0,1,.084-.221.258.258,0,0,1,.147-.1,1.187,1.187,0,0,1,.352.131,4.466,4.466,0,0,0,1.7.478,1.927,1.927,0,0,0,.3,0,1.324,1.324,0,0,0,.61-.084,1.284,1.284,0,0,0,.468-.4l.079-.105a8.537,8.537,0,0,1-.768,2.377,4.342,4.342,0,0,0-.573,2.077,2.06,2.06,0,0,0,.231,1.094l.058-.116a8.341,8.341,0,0,0,1.141,1.577,11.1,11.1,0,0,1-.11,2.466,5.1,5.1,0,0,0,1.951,5.615l.647,1.42-2.666.189c-.268-.037-3.759-.526-3.775.174s.526,7.624,2.334,7.156c1.688-.436,1.13-2.455,1.052-2.724h-.005l1.346-1.278a.584.584,0,0,0-.1-.442h0l3.255.147.762,1.672s1.3,1.977.247,3.638a16.9,16.9,0,0,0-2.319,5.836,6.426,6.426,0,0,1-1.441,2.976c-.61.21-2.95,1.125-2.019,2.518,1.052,1.577,4.548,4.627,5.952,4.522s.841-1.125.841-1.125l-1.173-1.146a28.294,28.294,0,0,1-.126-3.155.726.726,0,0,0-.526-.747,7.907,7.907,0,0,1,.988-3.118c.846-1.162,3.549-6.267,3.549-6.267s.857-.763.668-3.034c-.079-.915-.121-1.719-.147-2.355l3.06.137s3.281-.326,1.052-3.844-6.967-6.967-6.967-6.967l-.042-2.177.342.084a.715.715,0,0,0-.052-.221h.052a46.638,46.638,0,0,1-.867-5.273l.195.089c2.035,2.355,3.407.363,3.407.363s4.3-6.041,3.88-5.784a.363.363,0,0,1-.284,0l.31-.988s1.272-1.94-.573-3.034c-1.5-.888-1.467,1.9-1.4,2.96l-.074-.068s-1.441,2.166-2.214,3.381-1.42.415-1.42.415l-.978-1.1a3.908,3.908,0,0,0,.231-1.378,2.324,2.324,0,0,0-.663-1.782,3.112,3.112,0,0,1-.983-2.066,2.164,2.164,0,0,1,.195-.846l5.074-2.687s1.052,0,2.508-2.2a37.892,37.892,0,0,1,3.076-4.054l-.084-.116.084-.095s-.058-.084-.163-.216l.783-.9a11.958,11.958,0,0,0,0,1.225l.4,1.372.231,7.619s-.247.731,1.335,1.456c1.336.615,3.454,1.656,4.07,1.956a.942.942,0,0,1-.037.089h.184a2.617,2.617,0,0,1,2.981,2.8s.21,6.273-.736,8.455a12.462,12.462,0,0,0-.81,4.884s.095-.457.626.142l-.037.168c-.3,1.514-.925,4.732-1.052,6.031a21.145,21.145,0,0,1-.683,3.517l-.316,5.784,1.977.095v.205a.63.63,0,0,1-.331.526c-.678.368-2.271,1.656-2.145,5.621l-.068.652a8.079,8.079,0,0,1-.962,3.081,1.979,1.979,0,0,0-.121.231.184.184,0,0,1,.053-.11s-1.025.21-.815,2.981.526,3.26.946,3.291,2.476.526,2.371-.484a18.5,18.5,0,0,1-.068-3.638c.142-.347.694-1.278.163-1.5h0a7.847,7.847,0,0,0,.221-1.94,12.715,12.715,0,0,1,1.772-2.235,5.011,5.011,0,0,0,1.4-2.965c0-.084,2.177-1.525,1.861-2.718q-.079-.3-.126-.526a.4.4,0,0,0-.037-.21h.042l.436-2.629v2.566l.263.032v.21l-.11,2.455a3.982,3.982,0,0,1-.315,1.393,13.671,13.671,0,0,0-1.088,6.2l-.026,2.361c-.074,0-1.146.268-.941,2.944.21,2.771.526,3.255.946,3.291s2.476.526,2.371-.484a19.016,19.016,0,0,1-.074-3.638c.137-.347.384-1.262-.147-1.488a1.965,1.965,0,0,1,.221-.888c.231-.394,1-2.266,1.577-3.707a13.327,13.327,0,0,0,.978-4.58v-.053a4.313,4.313,0,0,1,.336-1.541,10.894,10.894,0,0,0,.563-1.7.377.377,0,0,1,.037-.2l.5.063,1.725-7.445a36.129,36.129,0,0,0,.242-5.862.466.466,0,0,0-.032-.21h.105s.352-.9.247-4.732.7-5.058.7-5.058c.436-1.383.92-1.846,1.2-2h0a.573.573,0,0,1,.242-.079l1.3,1.493h0l.242.273h0l.11.121a1.1,1.1,0,0,1,0-.184c.694.4,2.3,1.346,3.26,2.024a2.956,2.956,0,0,0,2.687.689,7.245,7.245,0,0,0,2.161-.71h.052a2.616,2.616,0,0,0,.526.205s1.767,1.493,1.935-1.236S586.635,704.327,586.635,704.327ZM540.84,736.1a2.685,2.685,0,0,1-.526-.216Zm-2.76-29.538v.389h0A3.183,3.183,0,0,1,538.079,706.562Zm27.6,34.586v.152C565.646,741.221,565.63,741.221,565.678,741.148Z" transform="translate(-280.63 -347.431)"/><rect class="b" width="2.997" height="3.149" transform="translate(287.687 348.32)"/><path class="j" d="M591.781,777.566a4.979,4.979,0,0,1-1.378,2.944,12.705,12.705,0,0,0-1.74,2.219c0,2.156-.584,2.808-.584,2.808l-.584.158H586.05a6.748,6.748,0,0,1-.31-1.157,1.32,1.32,0,0,1,.226-.641,8.111,8.111,0,0,0,.946-3.06l.063-.636c-.121-3.943,1.441-5.226,2.1-5.589a.641.641,0,0,0,.326-.526h0l.116-1.125,3.891.189a3.156,3.156,0,0,0,.068,1.136,2.511,2.511,0,0,0,.121.552C593.916,776.051,591.8,777.476,591.781,777.566Z" transform="translate(-307.738 -392.861)"/><path class="j" d="M604.606,775.228a9.859,9.859,0,0,1-.526,1.682,4.414,4.414,0,0,0-.331,1.535v.053a13.409,13.409,0,0,1-.957,4.553c-.573,1.43-1.33,3.292-1.577,3.68a3.029,3.029,0,0,0-.152,1.756l-2.193-.152.037-3.68a13.7,13.7,0,0,1,1.052-6.162,4.06,4.06,0,0,0,.3-1.383l.11-2.445.032-.72s3.875-.552,4.206.326a1.924,1.924,0,0,1-.005.957Z" transform="translate(-313.964 -393.247)"/><path class="k" d="M591.781,777.566a4.979,4.979,0,0,1-1.378,2.944,12.705,12.705,0,0,0-1.74,2.219c0,2.156-.584,2.808-.584,2.808l-.584.158H586.05a6.748,6.748,0,0,1-.31-1.157,1.32,1.32,0,0,1,.226-.641,8.111,8.111,0,0,0,.946-3.06l.063-.636c-.121-3.943,1.441-5.226,2.1-5.589a.641.641,0,0,0,.326-.526h0l.116-1.125,3.891.189a3.156,3.156,0,0,0,.068,1.136,2.511,2.511,0,0,0,.121.552C593.916,776.051,591.8,777.476,591.781,777.566Z" transform="translate(-307.738 -392.861)"/><path class="k" d="M604.606,775.228a9.859,9.859,0,0,1-.526,1.682,4.414,4.414,0,0,0-.331,1.535v.053a13.409,13.409,0,0,1-.957,4.553c-.573,1.43-1.33,3.292-1.577,3.68a3.029,3.029,0,0,0-.152,1.756l-2.193-.152.037-3.68a13.7,13.7,0,0,1,1.052-6.162,4.06,4.06,0,0,0,.3-1.383l.11-2.445.032-.72s3.875-.552,4.206.326a1.924,1.924,0,0,1-.005.957Z" transform="translate(-313.964 -393.247)"/><path class="g" d="M596.795,774.335l-4.075-.2.116-1.125,3.891.189A3.154,3.154,0,0,0,596.795,774.335Z" transform="translate(-311.048 -392.885)"/><path class="g" d="M605.986,775.224l-4.206-.568.032-.72s3.875-.552,4.206.326A1.926,1.926,0,0,1,605.986,775.224Z" transform="translate(-315.344 -393.243)"/><path class="l" d="M602.182,753.621l-1.688,7.4-4.995-.673v-2.545l-.431,2.629-5.989-.294.31-5.736a21.158,21.158,0,0,0,.668-3.491c.116-1.3.731-4.5,1.052-5.994.094-.526.158-.81.158-.81s10.263,2.135,10.936,2.908a1.661,1.661,0,0,1,.237.789A37.629,37.629,0,0,1,602.182,753.621Z" transform="translate(-309.322 -379.18)"/><path class="g" d="M591.21,761.559s4.038-2.1,5.021-1.672Z" transform="translate(-310.332 -386.634)"/><path class="g" d="M595.4,750s3.354,2.55,3.46,3.239Z" transform="translate(-312.318 -381.973)"/><path class="g" d="M593.66,766.645s2.429-.1,3.2.526Z" transform="translate(-311.493 -389.864)"/><path class="g" d="M601.673,761.47s1.151,3.775.652,4.811-1.015-.242-1.015-.242Z" transform="translate(-315.121 -387.412)"/><path class="l" d="M598.037,798.92s-1.141.174-.931,2.929.526,3.234.931,3.27,2.424.526,2.324-.484a18.667,18.667,0,0,1-.068-3.612c.142-.342.373-1.257-.147-1.483l-.116.526s-1.1-1.015-1.756-.273a2.751,2.751,0,0,0-.131-.526C598.09,799.1,597.932,799.02,598.037,798.92Z" transform="translate(-313.116 -405.172)"/><path class="j" d="M630.417,730.594s-.258.142-.641.326a7.135,7.135,0,0,1-2.1.7,2.888,2.888,0,0,1-2.629-.684c-.941-.673-2.519-1.614-3.2-2.014l-.3-.179h-.032l.568-1.577,2.014-1.052.526.431,1.488,1.278a.736.736,0,0,0,.6.347c.373-.026,2.377.142,2.377.142l.379.063.8.132Z" transform="translate(-324.7 -370.649)"/><path class="g" d="M637.192,732.6s-.258.142-.641.326c-.4-.205-.9-.594-.71-1.23s.221-1.025.363-1.346l.8.131Z" transform="translate(-331.476 -372.655)"/><path class="j" d="M637.014,729.259s2.245-.647,2.077,2.066-1.9,1.225-1.9,1.225-1.472-.384-1.162-1.4S636.252,729.506,637.014,729.259Z" transform="translate(-331.566 -372.106)"/><path class="j" d="M585.98,697l-2.34.983h-.063l-.147-.074c-.6-.3-2.681-1.33-3.991-1.945-1.577-.72-1.309-1.446-1.309-1.446l-.226-7.577-.394-1.356s-.284-4.616,1.961-5.784.794,6.677.794,6.677l.163,1.63a18.121,18.121,0,0,0,.615,3.076,4.466,4.466,0,0,1,.184,1.009c.068,1.1.584,1.052.584,1.052a7.187,7.187,0,0,1,2.329.789,6.33,6.33,0,0,1,.773.489Z" transform="translate(-303.829 -348.629)"/><path class="k" d="M607.678,714.777l-2-.21a7.538,7.538,0,0,0,.847-1.73,2.908,2.908,0,0,0,.089-.352,1.2,1.2,0,0,0-.11-.878c-.584-.862,3.481-2.066,3.481-2.066a9.94,9.94,0,0,0-.047,1.435,8.188,8.188,0,0,0,.105.989,2.482,2.482,0,0,0,.836,1.625C612.157,714.467,607.678,714.777,607.678,714.777Z" transform="translate(-317.193 -362.786)"/><path class="g" d="M607.678,716.963l-2-.21a7.539,7.539,0,0,0,.847-1.73c.231.331.31.321.636.389a2.949,2.949,0,0,0,2.881-1.262,2.482,2.482,0,0,0,.836,1.625C612.157,716.653,607.678,716.963,607.678,716.963Z" transform="translate(-317.193 -364.972)"/><path class="g" d="M621.82,728.928a1.116,1.116,0,0,0,0,.184l-.31-.363h0l.568-1.577,2.014-1.052.526.431C623.871,726.782,621.857,727.634,621.82,728.928Z" transform="translate(-324.7 -370.649)"/><path class="g" d="M591.3,709.926l-2.34.983h-.242l.031-.089c.195-.473,1.1-2.787.71-3.88a6.351,6.351,0,0,1,.773.489Z" transform="translate(-309.151 -361.553)"/><path class="g" d="M604.231,747.786c-.91-.084-10.027-.925-10.878-2.266a4.472,4.472,0,0,0-.452-.62c.095-.526.158-.81.158-.81s10.263,2.135,10.936,2.908A1.661,1.661,0,0,1,604.231,747.786Z" transform="translate(-311.133 -379.171)"/><path class="m" d="M599.267,711.988a2.943,2.943,0,0,0,2.9-1.283,6.751,6.751,0,0,0,2.3,1.288c.862.105,4.853,5.126,4.853,5.126s-3.2,1.052-3,2.687l-1.535-1.756s-.757-.032-1.409,2.066c0,0-.794,1.2-.689,5.026s-.242,4.732-.242,4.732-10.058-.862-10.952-2.277-1.052-.72-1.052-.72a12.563,12.563,0,0,1,.789-4.858c.931-2.166.725-8.412.725-8.412s.1-3.065-2.929-2.787c0,0,1.272-2.965.689-4.1a15.035,15.035,0,0,0,2.986.489,5.142,5.142,0,0,1,2.2.526,2.442,2.442,0,0,1,.91.689,1.341,1.341,0,0,0,1.577.447,15.784,15.784,0,0,0,.9,2.208l.121.221c.063.1.121.2.184.289A.731.731,0,0,0,599.267,711.988Z" transform="translate(-309.298 -361.449)"/><path class="g" d="M610.632,710.99a3.545,3.545,0,0,1-.363.436,3.6,3.6,0,0,1-2.587,1.088h-.373a1.2,1.2,0,0,0-.11-.878c-.584-.862,3.481-2.066,3.481-2.066a9.921,9.921,0,0,0-.047,1.419Z" transform="translate(-317.886 -362.801)"/><path class="j" d="M608.525,704.837a3.591,3.591,0,1,1-1.052-2.566A3.617,3.617,0,0,1,608.525,704.837Z" transform="translate(-315.112 -358.841)"/><path class="g" d="M618.45,723.816l.074,2.419s1.083-.868,1.115-1.7S618.45,723.816,618.45,723.816Z" transform="translate(-323.249 -369.554)"/><path class="g" d="M601.88,728.42s2.844,3.9,4.5,4.3S602.5,729.687,601.88,728.42Z" transform="translate(-315.391 -371.74)"/><path class="g" d="M607.61,729.19s1.577,1.788,2.724,2.014Z" transform="translate(-318.109 -372.105)"/><path class="g" d="M597,737.77s2.892,2.839,4.548,3.013Z" transform="translate(-313.077 -376.174)"/><path class="g" d="M609.5,704.837a3.591,3.591,0,0,1-1.051,2.524l-.4-.242a1.131,1.131,0,0,1-.384-.336,1.34,1.34,0,0,1-.084-.752,1.762,1.762,0,0,0-.526-1.462c-.689-.526-1.788-.247-2.477-.783a2.628,2.628,0,0,1-.442-.489l-.652-.873-.137-.168a3.617,3.617,0,0,1,6.152,2.582Z" transform="translate(-316.089 -358.84)"/><path class="l" d="M603.368,698.124a6.547,6.547,0,0,1,1.078-.563c.358-.179.683-.41,1.052-.568a1.614,1.614,0,0,1,1.157-.116c.81.279,1.115,1.409,1.951,1.609.137.031.284.031.426.058a1.961,1.961,0,0,1,1.309.91,3.1,3.1,0,0,1,.415,1.577,2.633,2.633,0,0,1-.131.9,8.011,8.011,0,0,1-1.283,1.719,3.279,3.279,0,0,0-.6,1.9l-1.01-.626a1.13,1.13,0,0,1-.384-.337,1.329,1.329,0,0,1-.084-.747,1.772,1.772,0,0,0-.526-1.467c-.689-.526-1.788-.242-2.476-.783a2.313,2.313,0,0,1-.442-.489c-.215-.289-.436-.578-.652-.873a2.485,2.485,0,0,1-.473-.657A1.668,1.668,0,0,1,603.368,698.124Z" transform="translate(-315.765 -356.754)"/><path class="g" d="M607.9,706.048a1.084,1.084,0,0,1-.389-.331,1.341,1.341,0,0,1-.084-.752,1.746,1.746,0,0,0-.526-1.462c-.684-.526-1.783-.247-2.477-.783a2.638,2.638,0,0,1-.442-.489c-.215-.289-.431-.584-.652-.873a2.429,2.429,0,0,1-.473-.663,1.5,1.5,0,0,1,.479-1.246,1.577,1.577,0,0,0-.589,1.362,2.487,2.487,0,0,0,.473.657c.216.294.436.584.652.873a2.317,2.317,0,0,0,.442.489c.689.526,1.788.237,2.477.783a1.772,1.772,0,0,1,.526,1.467,1.329,1.329,0,0,0,.084.747,1.13,1.13,0,0,0,.384.336l1.01.626v-.179Z" transform="translate(-315.799 -358.001)"/><path class="l" d="M585.3,794s-1.009.21-.8,2.965.526,3.239.931,3.27,2.429.526,2.324-.478a18.709,18.709,0,0,1-.068-3.617c.137-.347.684-1.272.163-1.5l-.421.526s-1.1-1.015-1.756-.279C585.668,794.909,585.058,794.237,585.3,794Z" transform="translate(-307.134 -402.839)"/><path class="g" d="M587.26,797.24c.216.1.421.231.636.336a1.451,1.451,0,0,0,.694.163.527.527,0,0,0,.284-.1" transform="translate(-308.458 -404.375)"/><path class="g" d="M599.85,802.38a4.905,4.905,0,0,0,.373.368,1.308,1.308,0,0,0,.726.147.318.318,0,0,0,.121,0,.252.252,0,0,0,.11-.1l.137-.174" transform="translate(-314.429 -406.813)"/><path class="n" d="M567.512,712.087s-.463-4.411,1.346-3.323.557,3.013.557,3.013l-.421,1.362Z" transform="translate(-299.068 -362.337)"/><path class="n" d="M573.06,683.5l1.052-1.015s1.977-5.7,3.943-4.238-2.492,5.168-2.492,5.168l-1.178,1.378Z" transform="translate(-301.725 -347.832)"/><path class="m" d="M544.263,730.822l-.053,1.167s.946,1.656,1.346,1.777.358-3.5.358-3.5Z" transform="translate(-288.043 -372.617)"/><path class="g" d="M544.063,731.017l-.053,1.172s.952,1.651,1.346,1.772.363-3.491.363-3.491Z" transform="translate(-287.949 -372.712)"/><path class="n" d="M490.32,684.56l.068,4.317h4.806l-.363-2.513Z" transform="translate(-232.518 -327.638)"/><path class="l" d="M548.971,749.36l.226,1.378,2.8,6.236s1.278,1.961.242,3.612a16.835,16.835,0,0,0-2.271,5.784,6.855,6.855,0,0,1-1.53,3.1l2.96,1.257a9.046,9.046,0,0,1,1.052-3.617c.846-1.151,3.481-6.236,3.481-6.236s.841-.757.652-3.013-.168-3.838-.168-3.838l-.294-3.6Z" transform="translate(-290.049 -381.67)"/><path class="g" d="M548.971,749.36l.226,1.378,2.8,6.236s1.278,1.961.242,3.612a16.835,16.835,0,0,0-2.271,5.784,6.855,6.855,0,0,1-1.53,3.1l2.96,1.257a9.046,9.046,0,0,1,1.052-3.617c.846-1.151,3.481-6.236,3.481-6.236s.841-.757.652-3.013-.168-3.838-.168-3.838l-.294-3.6Z" transform="translate(-290.049 -381.67)"/><path class="m" d="M546.839,787.29s-3.155.962-2.1,2.545,4.459,4.6,5.836,4.5.826-1.12.826-1.12l-1.151-1.136a28.357,28.357,0,0,1-.121-3.118c.084-.7-.983-1.052-1.12-.62S546.839,787.29,546.839,787.29Z" transform="translate(-288.191 -399.657)"/><path class="l" d="M549.344,733.6l-2.513.273a.9.9,0,0,0-.8.92,14.019,14.019,0,0,1-.095,2.892,5.105,5.105,0,0,0,1.914,5.589l3.733,1.188-5.989.431.189,3.323.925-.526,11.367.526s3.218-.326,1.052-3.822-6.835-6.919-6.835-6.919l-.053-2.724-.342-.789Z" transform="translate(-288.698 -374.196)"/><path class="g" d="M558.65,753.9a3.25,3.25,0,0,1,2.587,0Z" transform="translate(-294.891 -383.694)"/><path class="m" d="M542.786,754.829s-3.681-.526-3.717.174.526,7.571,2.287,7.109,1.02-2.739,1.02-2.739L543.7,758.1s.137-.7-.741-.636Z" transform="translate(-285.604 -384.173)"/><path class="m" d="M557.15,716.488l1.467,1.672s.636.789,1.393-.415,2.166-3.354,2.166-3.354,1.577,1.378,1.982,1.1-3.807,5.736-3.807,5.736-1.341,1.977-3.339-.363l-.584-.273Z" transform="translate(-293.838 -365.086)"/><path class="g" d="M556.956,716.488l1.462,1.672s.636.789,1.393-.415,2.172-3.354,2.172-3.354,1.577,1.378,1.977,1.1-3.8,5.736-3.8,5.736-1.346,1.977-3.344-.363l-.584-.273Z" transform="translate(-293.744 -365.086)"/><circle class="n" cx="3.05" cy="3.05" r="3.05" transform="translate(255.788 338.52)"/><path class="g" d="M546.672,695.677s-2.629,1.241-2.308,3.412a47.99,47.99,0,0,1,.363,4.905s1.188,1.756-.389,5.116c0,0-1.01,1.7-.337,2.944,0,0,.747-1.966,2.671-.526a15.278,15.278,0,0,0,5.026,2.1s-1.6-7.025-.62-8.008c0,0,1.7-2.529.158-4.127a2.749,2.749,0,0,1-.778-3.1l4.979-2.671s1.052,0,2.461-2.182a37.234,37.234,0,0,1,3.013-4.033s-1.052-1.577-2.066-1.719a3.581,3.581,0,0,0-.673,1.53,7.478,7.478,0,0,1-2.045,2.387c-.636.568-1.257,1.162-1.872,1.751a6.942,6.942,0,0,1-3.68,1.425A19.8,19.8,0,0,0,546.672,695.677Z" transform="translate(-287.835 -352.472)"/><path class="m" d="M546.672,695.277s-2.629,1.241-2.308,3.407a48.16,48.16,0,0,1,.363,4.911s1.188,1.756-.389,5.111c0,0-1.01,1.709-.337,2.944,0,0,.747-1.961,2.671-.526a15.408,15.408,0,0,0,5.026,2.1s-1.6-7.024-.62-8.008c0,0,1.7-2.529.158-4.133a2.74,2.74,0,0,1-.778-3.1l4.979-2.671s1.052,0,2.461-2.187a37.461,37.461,0,0,1,3.013-4.028s-1.052-1.6-2.066-1.725a3.634,3.634,0,0,0-.673,1.535,7.477,7.477,0,0,1-2.045,2.387c-.636.568-1.257,1.157-1.872,1.751a6.988,6.988,0,0,1-3.68,1.425C546.914,695.067,546.672,695.277,546.672,695.277Z" transform="translate(-287.835 -352.278)"/><path class="g" d="M553.58,727.09a27.541,27.541,0,0,1,2.1,3.512C555.662,730.6,555.378,727.384,553.58,727.09Z" transform="translate(-292.487 -371.109)"/><path class="g" d="M548.5,707.9a2.5,2.5,0,0,0,3.465.279A4.406,4.406,0,0,1,548.5,707.9Z" transform="translate(-290.078 -362.009)"/><path class="g" d="M540.861,691.766a.942.942,0,0,0-.221-.415,4.418,4.418,0,0,0-1.667-1.483,2.3,2.3,0,0,0-2.629.747c-.247.336-.4.741-.615,1.1a4.853,4.853,0,0,1-1.677,1.577c-.4.247-.82.457-1.2.736a4.58,4.58,0,0,0-1.656,4.543,7.264,7.264,0,0,1,.384,2.2,3.928,3.928,0,0,1-.684,1.577,4.922,4.922,0,0,0-.768,1.577,1.546,1.546,0,0,0,.473,1.577,2.8,2.8,0,0,1,.526.357,1.544,1.544,0,0,1,.247.384,3.775,3.775,0,0,0,2.356,1.856c.447.116,1.052.074,1.2-.358a.772.772,0,0,1,.084-.215c.147-.21.468-.089.694,0a4.247,4.247,0,0,0,1.672.478,1.345,1.345,0,0,0,.678-.079,1.252,1.252,0,0,0,.463-.4,4.916,4.916,0,0,0,.794-2.519,6,6,0,0,0,0-1.735c-.173-.915-.731-1.772-.647-2.7s.889-1.8,1.015-2.792a2.134,2.134,0,0,0-.363-1.467,2.236,2.236,0,0,1-.279-.431.431.431,0,0,1,.084-.473.686.686,0,0,1,.216-.105,1.8,1.8,0,0,0,1.052-1.577,3.235,3.235,0,0,1,.068-.747C540.577,692.607,540.918,692.181,540.861,691.766Z" transform="translate(-281.339 -353.388)"/><path class="l" d="M540.466,691.766a.952.952,0,0,0-.226-.415,4.4,4.4,0,0,0-1.667-1.483,2.3,2.3,0,0,0-2.629.747,12.513,12.513,0,0,0-.615,1.1,4.853,4.853,0,0,1-1.677,1.577c-.4.247-.82.457-1.2.736a4.6,4.6,0,0,0-1.661,4.543,7.113,7.113,0,0,1,.389,2.2,3.863,3.863,0,0,1-.689,1.577,4.907,4.907,0,0,0-.762,1.577,1.546,1.546,0,0,0,.473,1.577,2.989,2.989,0,0,1,.526.357,1.531,1.531,0,0,1,.242.384,3.8,3.8,0,0,0,2.361,1.856c.447.116,1.052.073,1.2-.358a.763.763,0,0,1,.084-.215c.147-.21.468-.089.694,0a4.206,4.206,0,0,0,1.667.478,1.367,1.367,0,0,0,.684-.079,1.2,1.2,0,0,0,.457-.4,4.869,4.869,0,0,0,.794-2.518,5.813,5.813,0,0,0,0-1.735c-.174-.915-.731-1.772-.652-2.7s.894-1.8,1.015-2.792a2.1,2.1,0,0,0-.363-1.467,2.482,2.482,0,0,1-.273-.431.431.431,0,0,1,.084-.473.591.591,0,0,1,.216-.105,1.793,1.793,0,0,0,1.052-1.577,3.55,3.55,0,0,1,.073-.747C540.182,692.607,540.524,692.181,540.466,691.766Z" transform="translate(-281.15 -353.388)"/><g class="e" transform="translate(252.444 336.352)"><path d="M537.845,723.49a.769.769,0,0,0-.084.216.7.7,0,0,1-.631.4c.394.037.81-.053.941-.4a.771.771,0,0,1,.084-.216.249.249,0,0,1,.105-.089A.352.352,0,0,0,537.845,723.49Z" transform="translate(-537.13 -705.695)"/><path d="M547.094,691.782a.9.9,0,0,0-.226-.415,4.317,4.317,0,0,0-1.667-1.462,2.1,2.1,0,0,0-.952-.142,1.924,1.924,0,0,1,.631.121,4.314,4.314,0,0,1,1.667,1.462.9.9,0,0,1,.226.415c.058.415-.284.841-.4,1.225a3.242,3.242,0,0,0-.068.747,1.809,1.809,0,0,1-1.052,1.577.587.587,0,0,0-.215.105.426.426,0,0,0-.084.473,2.237,2.237,0,0,0,.279.431,2.1,2.1,0,0,1,.363,1.467c-.126.988-.931,1.8-1.02,2.787s.478,1.788.652,2.7a5.814,5.814,0,0,1,0,1.735,4.9,4.9,0,0,1-.789,2.518,1.249,1.249,0,0,1-.463.4,1.046,1.046,0,0,1-.336.084,1.412,1.412,0,0,0,.647-.084,1.251,1.251,0,0,0,.463-.4,4.9,4.9,0,0,0,.789-2.518,5.818,5.818,0,0,0,0-1.735c-.174-.915-.731-1.772-.652-2.7s.894-1.8,1.02-2.787a2.1,2.1,0,0,0-.363-1.467,2.234,2.234,0,0,1-.279-.431.426.426,0,0,1,.084-.473.589.589,0,0,1,.216-.105,1.793,1.793,0,0,0,1.052-1.577,3.559,3.559,0,0,1,.074-.747C546.81,692.624,547.152,692.2,547.094,691.782Z" transform="translate(-540.217 -689.756)"/></g><path class="g" d="M542.77,763a1.4,1.4,0,0,0,1.43.394" transform="translate(-287.361 -388.138)"/><path class="g" d="M554.715,796.56a.873.873,0,0,1-.715.184" transform="translate(-292.686 -404.053)"/><path class="b" d="M228.344,789.984l7-4.117a16.918,16.918,0,0,0-3.581-4.285l-13.208,4.112,10.347-6.089A16.825,16.825,0,0,0,204,794.364c0,9.291,7.534,9.617,16.825,9.617s16.825-.326,16.825-9.617a16.714,16.714,0,0,0-1.446-6.835Z" transform="translate(-126.71 -395.032)"/><path class="g" d="M230.126,808.727a13.145,13.145,0,0,0-2.482-1.951,11.635,11.635,0,0,0-4.085-1.993,30.852,30.852,0,0,0-4.012-.116,9.375,9.375,0,0,1-6.146-2.818,18.577,18.577,0,0,0-2.86-2.955,6.262,6.262,0,0,0-4.28-.789,10.413,10.413,0,0,0-1.267.263,16.825,16.825,0,0,0-.994,5.7c0,9.291,7.534,9.617,16.825,9.617,4.511,0,8.6-.079,11.625-1.22l-.526-.941a13.215,13.215,0,0,0-1.8-2.8Z" transform="translate(-126.71 -404.742)"/><path class="b" d="M1008.344,789.984l7-4.117a16.916,16.916,0,0,0-3.581-4.285l-13.208,4.112,10.347-6.089A16.825,16.825,0,0,0,984,794.364c0,9.291,7.534,9.617,16.825,9.617s16.825-.326,16.825-9.617a16.714,16.714,0,0,0-1.446-6.835Z" transform="translate(-496.599 -395.032)"/><path class="g" d="M1010.126,808.727a13.147,13.147,0,0,0-2.482-1.951,11.637,11.637,0,0,0-4.085-1.993,30.851,30.851,0,0,0-4.012-.116,9.374,9.374,0,0,1-6.146-2.818,18.578,18.578,0,0,0-2.86-2.955,6.262,6.262,0,0,0-4.28-.789,10.412,10.412,0,0,0-1.267.263,16.825,16.825,0,0,0-.994,5.7c0,9.291,7.535,9.617,16.825,9.617,4.511,0,8.6-.079,11.625-1.22l-.526-.941a13.214,13.214,0,0,0-1.8-2.8Z" transform="translate(-496.599 -404.742)"/><path class="b" d="M382.272,778.779l-5.473-3.218a13.371,13.371,0,0,1,2.8-3.344l10.321,3.207-8.087-4.732a13.145,13.145,0,0,1,19.459,11.488c0,7.261-5.884,7.513-13.145,7.513S375,789.442,375,782.18a13.075,13.075,0,0,1,1.13-5.331Z" transform="translate(-207.801 -391.019)"/><path class="g" d="M384.544,793.432a10.227,10.227,0,0,1,1.935-1.52,8.978,8.978,0,0,1,3.192-1.577,23.442,23.442,0,0,1,3.155-.089,7.361,7.361,0,0,0,4.8-2.2,14.562,14.562,0,0,1,2.235-2.314,4.89,4.89,0,0,1,3.344-.615,8.927,8.927,0,0,1,.989.205,13.052,13.052,0,0,1,.762,4.432c0,7.261-5.884,7.513-13.145,7.513-3.523,0-6.719-.063-9.08-.952l.394-.736A10.106,10.106,0,0,1,384.544,793.432Z" transform="translate(-211.467 -398.59)"/><path class="b" d="M462.271,778.779l-5.473-3.218a13.369,13.369,0,0,1,2.8-3.344l10.321,3.207-8.087-4.732a13.144,13.144,0,0,1,19.459,11.488c0,7.261-5.883,7.513-13.145,7.513S455,789.442,455,782.18a13.075,13.075,0,0,1,1.13-5.331Z" transform="translate(-245.738 -391.019)"/><path class="g" d="M464.544,793.432a10.222,10.222,0,0,1,1.935-1.52,8.975,8.975,0,0,1,3.191-1.577,23.432,23.432,0,0,1,3.155-.089,7.361,7.361,0,0,0,4.8-2.2,14.563,14.563,0,0,1,2.235-2.314,4.89,4.89,0,0,1,3.344-.615,8.926,8.926,0,0,1,.988.205,13.049,13.049,0,0,1,.762,4.432c0,7.261-5.883,7.513-13.145,7.513-3.523,0-6.72-.063-9.08-.952l.394-.736a10.11,10.11,0,0,1,1.42-2.145Z" transform="translate(-249.404 -398.59)"/><path class="b" d="M753.271,778.779l-5.473-3.218a13.368,13.368,0,0,1,2.8-3.344l10.321,3.207-8.087-4.732a13.144,13.144,0,0,1,19.459,11.488c0,7.261-5.883,7.513-13.145,7.513S746,789.442,746,782.181a13.075,13.075,0,0,1,1.13-5.331Z" transform="translate(-383.736 -391.019)"/><path class="g" d="M755.544,793.432a10.224,10.224,0,0,1,1.935-1.52,8.977,8.977,0,0,1,3.192-1.577,23.441,23.441,0,0,1,3.155-.089,7.361,7.361,0,0,0,4.8-2.2,14.554,14.554,0,0,1,2.235-2.314,4.89,4.89,0,0,1,3.344-.615,8.921,8.921,0,0,1,.988.205,13.052,13.052,0,0,1,.762,4.432c0,7.261-5.884,7.513-13.145,7.513-3.523,0-6.719-.063-9.08-.952l.394-.736A10.1,10.1,0,0,1,755.544,793.432Z" transform="translate(-387.401 -398.59)"/><path class="f" d="M491.693,710.173a10.905,10.905,0,0,0,1.441-5.516c0-4.984-3.092-9.028-6.9-9.028s-6.9,4.043-6.9,9.028a10.905,10.905,0,0,0,1.441,5.516,11.289,11.289,0,0,0,0,11.041,11.278,11.278,0,0,0,0,11.041,11.289,11.289,0,0,0,0,11.041,10.889,10.889,0,0,0-1.441,5.516c0,4.984,3.092,9.028,6.9,9.028s6.9-4.043,6.9-9.028a10.889,10.889,0,0,0-1.441-5.516,11.289,11.289,0,0,0,0-11.041,11.278,11.278,0,0,0,0-11.041A11.289,11.289,0,0,0,491.693,710.173Z" transform="translate(-257.278 -356.19)"/><ellipse class="f" cx="6.898" cy="9.028" rx="6.898" ry="9.028" transform="translate(222.059 328.409)"/><ellipse class="f" cx="6.898" cy="9.028" rx="6.898" ry="9.028" transform="translate(222.059 317.378)"/><path class="b" d="M488.361,479.046a33.172,33.172,0,0,0,2.566-3.78l-18.108-2.976,19.6.147a33.1,33.1,0,0,0,.631-26.173L466.756,459.9,491,442.084a33.03,33.03,0,1,0-54.555,36.963,33.1,33.1,0,0,0-3.765,6.025L456.2,497.291l-25.08-8.413a33.067,33.067,0,0,0,5.326,31.021,33.03,33.03,0,1,0,51.926,0,33.04,33.04,0,0,0,0-40.843Z" transform="translate(-233.588 -228.148)"/><path class="g" d="M429.359,565.629a32.866,32.866,0,0,0,7.067,20.421,33.03,33.03,0,1,0,51.926,0C492.79,580.435,429.359,561.912,429.359,565.629Z" transform="translate(-233.579 -294.31)"/><path class="f" d="M680.256,691.2a13.787,13.787,0,0,0,1.819-6.982c0-6.309-3.906-11.425-8.728-11.425s-8.728,5.116-8.728,11.425a13.791,13.791,0,0,0,1.824,6.982,14.264,14.264,0,0,0,0,13.959,14.275,14.275,0,0,0,0,13.965,14.275,14.275,0,0,0,0,13.965,13.775,13.775,0,0,0-1.824,6.982c0,6.309,3.912,11.425,8.728,11.425s8.728-5.116,8.728-11.425a13.771,13.771,0,0,0-1.819-6.982,14.312,14.312,0,0,0,0-13.965,14.312,14.312,0,0,0,0-13.965,14.3,14.3,0,0,0,0-13.96Z" transform="translate(-345.143 -345.359)"/><ellipse class="f" cx="8.728" cy="11.425" rx="8.728" ry="11.425" transform="translate(319.476 313.472)"/><ellipse class="f" cx="8.728" cy="11.425" rx="8.728" ry="11.425" transform="translate(319.476 299.507)"/><path class="b" d="M611.01,398.7a40.716,40.716,0,0,1-3.249-4.785l22.929-3.765-24.8.184a41.873,41.873,0,0,1-.8-33.124l33.277,17.261-30.69-22.556a41.8,41.8,0,1,1,69.046,46.795,41.888,41.888,0,0,1,4.769,7.624L651.721,421.8l31.742-10.652a41.805,41.805,0,0,1-6.74,39.255,41.8,41.8,0,1,1-65.723,0,41.8,41.8,0,0,1,0-51.695Z" transform="translate(-315.473 -183.328)"/><path class="g" d="M685.684,508.265a41.615,41.615,0,0,1-8.938,25.847,41.8,41.8,0,1,1-65.723,0C605.418,527,685.684,503.575,685.684,508.265Z" transform="translate(-315.486 -267.046)"/></g></svg>