<svg xmlns="http://www.w3.org/2000/svg" width="72" height="52.915" viewBox="0 0 72 52.915"><defs><style>.a{fill:#fff;font-size:12px;font-family:Helvetica;}.b{fill:none;stroke:#fff;stroke-width:1.6px;}</style></defs><g transform="translate(-1541 -72.2)"><text class="a" transform="translate(1577 122.115)"><tspan x="-35.016" y="0">Reservations</tspan></text><g transform="translate(1560 73)"><rect class="b" width="34.361" height="5.422" transform="translate(0 25.069)"/><path class="b" d="M32.376,28.373v-.95c0-.009,0-.018,0-.027s0-.016,0-.025V27.3h0a12.325,12.325,0,0,0-10.49-12.086v-2.1h3.271V9.777a1.313,1.313,0,0,0-1.31-1.269H15.954A1.321,1.321,0,0,0,14.632,9.83v3.282h3.283v2.143A12.324,12.324,0,0,0,7.73,26.965H7.716v.276c0,.052-.008.1-.008.153s.006.1.008.154v.823H6v2.642H33.8V28.372H32.376Z" transform="translate(-2.719 -8.508)"/></g></g></svg>